<svg width="20" height="21" viewBox="0 0 20 21" fill="none" xmlns="http://www.w3.org/2000/svg">
<path d="M14.9605 14.2999C14.8305 14.1699 14.7606 14.01 14.7606 13.83C14.7606 13.65 14.8305 13.4899 14.9605 13.3599L17.2705 11.0699H7.81055C7.64055 11.0699 7.49054 11.0099 7.37054 10.8799C7.25054 10.7599 7.18054 10.5999 7.18054 10.4099C7.18054 10.2199 7.24054 10.0599 7.37054 9.93994C7.49054 9.81994 7.64055 9.74988 7.81055 9.74988H17.2405L14.9005 7.43994C14.7905 7.30994 14.7306 7.14986 14.7306 6.97986C14.7306 6.80986 14.8005 6.6599 14.9305 6.5199C15.0605 6.3899 15.2205 6.31995 15.4005 6.31995C15.5805 6.31995 15.7305 6.3899 15.8405 6.5199L19.1805 9.82996C19.2805 9.92996 19.3406 10.0199 19.3806 10.1199C19.4206 10.2199 19.4406 10.3199 19.4406 10.4299C19.4406 10.5399 19.4206 10.6399 19.3806 10.7299C19.3406 10.8199 19.2805 10.9099 19.1805 10.9999L15.8705 14.3099C15.7605 14.4199 15.6106 14.4799 15.4406 14.4799C15.2706 14.4799 15.1106 14.4099 14.9506 14.2799L14.9605 14.2999ZM2.22055 20.4099C1.76055 20.4099 1.37054 20.2499 1.05054 19.9199C0.730537 19.5999 0.560547 19.2099 0.560547 18.7499V2.05994C0.560547 1.59994 0.720537 1.20989 1.05054 0.889893C1.37054 0.569893 1.76055 0.399902 2.22055 0.399902H9.45056C9.64056 0.399902 9.80056 0.459966 9.92056 0.589966C10.0406 0.709966 10.1105 0.869937 10.1105 1.05994C10.1105 1.24994 10.0506 1.3999 9.92056 1.5199C9.80056 1.6299 9.64056 1.68994 9.45056 1.68994H2.22055C2.12055 1.68994 2.04054 1.72993 1.96054 1.79993C1.88054 1.87993 1.85056 1.95994 1.85056 2.05994V18.7499C1.85056 18.8499 1.89054 18.9299 1.96054 19.0099C2.04054 19.0899 2.12055 19.1199 2.22055 19.1199H9.45056C9.64056 19.1199 9.80056 19.1799 9.92056 19.3099C10.0406 19.4299 10.1105 19.5799 10.1105 19.7499C10.1105 19.9399 10.0506 20.1 9.92056 20.22C9.80056 20.34 9.64056 20.4099 9.45056 20.4099H2.22055Z" fill="#1E1E1E"/>
</svg>
