<svg width="20" height="21" viewBox="0 0 20 21" fill="none" xmlns="http://www.w3.org/2000/svg">
<path d="M14.9601 14.2999C14.8301 14.1699 14.7601 14.01 14.7601 13.83C14.7601 13.65 14.8301 13.4899 14.9601 13.3599L17.2701 11.0699H7.81006C7.64006 11.0699 7.49006 11.0099 7.37006 10.8799C7.25006 10.7599 7.18005 10.5999 7.18005 10.4099C7.18005 10.2199 7.24006 10.0599 7.37006 9.93994C7.49006 9.81994 7.64006 9.74988 7.81006 9.74988H17.2401L14.9001 7.43994C14.7901 7.30994 14.7301 7.14986 14.7301 6.97986C14.7301 6.80986 14.8001 6.6599 14.9301 6.5199C15.0601 6.3899 15.2201 6.31995 15.4001 6.31995C15.5801 6.31995 15.7301 6.3899 15.8401 6.5199L19.1801 9.82996C19.2801 9.92996 19.3401 10.0199 19.3801 10.1199C19.4201 10.2199 19.4401 10.3199 19.4401 10.4299C19.4401 10.5399 19.4201 10.6399 19.3801 10.7299C19.3401 10.8199 19.2801 10.9099 19.1801 10.9999L15.8701 14.3099C15.7601 14.4199 15.6101 14.4799 15.4401 14.4799C15.2701 14.4799 15.1101 14.4099 14.9501 14.2799L14.9601 14.2999ZM2.22006 20.4099C1.76006 20.4099 1.37005 20.2499 1.05005 19.9199C0.730049 19.5999 0.560059 19.2099 0.560059 18.7499V2.05994C0.560059 1.59994 0.720049 1.20989 1.05005 0.889893C1.37005 0.569893 1.76006 0.399902 2.22006 0.399902H9.45007C9.64007 0.399902 9.80007 0.459966 9.92007 0.589966C10.0401 0.709966 10.11 0.869937 10.11 1.05994C10.11 1.24994 10.0501 1.3999 9.92007 1.5199C9.80007 1.6299 9.64007 1.68994 9.45007 1.68994H2.22006C2.12006 1.68994 2.04005 1.72993 1.96005 1.79993C1.88005 1.87993 1.85007 1.95994 1.85007 2.05994V18.7499C1.85007 18.8499 1.89005 18.9299 1.96005 19.0099C2.04005 19.0899 2.12006 19.1199 2.22006 19.1199H9.45007C9.64007 19.1199 9.80007 19.1799 9.92007 19.3099C10.0401 19.4299 10.11 19.5799 10.11 19.7499C10.11 19.9399 10.0501 20.1 9.92007 20.22C9.80007 20.34 9.64007 20.4099 9.45007 20.4099H2.22006Z" fill="white"/>
</svg>
