<svg width="35" height="32" viewBox="0 0 35 32" fill="none" xmlns="http://www.w3.org/2000/svg">
<path d="M16.9498 26.5756C17.5418 26.5756 18.0378 26.3516 18.4698 25.9196C18.8858 25.4876 19.1258 24.9756 19.1898 24.3836H14.7258C14.7578 24.9756 14.9818 25.4876 15.4138 25.9196C15.8458 26.3516 16.3578 26.5756 16.9498 26.5756ZM10.4218 21.6477H23.5098C23.7978 21.6477 24.0218 21.5356 24.2298 21.3276C24.4218 21.1196 24.5178 20.8636 24.5178 20.5916C24.5178 20.2876 24.4058 20.0316 24.1978 19.8396C23.9898 19.6476 23.7338 19.5516 23.4618 19.5516H22.8378V14.7036C22.8378 13.1676 22.4218 11.7437 21.5898 10.4477C20.7578 9.15166 19.6218 8.36761 18.1658 8.09561V6.67158C18.1658 6.33558 18.0538 6.04762 17.8138 5.80762C17.5738 5.56762 17.2858 5.45557 16.9498 5.45557C16.6138 5.45557 16.3258 5.56762 16.0858 5.80762C15.8458 6.04762 15.7338 6.33558 15.7338 6.67158V8.09561C14.2458 8.38361 13.0938 9.13558 12.2778 10.3676C11.4618 11.5996 11.0618 12.9756 11.0618 14.4956V19.5516H10.3898C10.1018 19.5516 9.87782 19.6476 9.66982 19.8396C9.47782 20.0316 9.38179 20.2876 9.38179 20.5916C9.38179 20.8796 9.47782 21.1196 9.66982 21.3276C9.86182 21.5356 10.1178 21.6477 10.4218 21.6477ZM16.9498 31.9996C14.7098 31.9996 12.6138 31.5996 10.6618 30.7836C8.70982 29.9676 7.01383 28.8476 5.57383 27.3916C4.13383 25.9516 2.99779 24.2556 2.18179 22.3036C1.36579 20.3516 0.96582 18.2556 0.96582 16.0156C0.96582 13.7756 1.36579 11.7116 2.18179 9.75957C2.99779 7.80757 4.11783 6.11158 5.57383 4.67158C7.02983 3.23158 8.70982 2.09557 10.6618 1.26357C12.6138 0.431574 14.7098 0.015625 16.9498 0.015625C19.1898 0.015625 21.2538 0.431574 23.2058 1.26357C25.1578 2.09557 26.8538 3.23158 28.2938 4.67158C29.7338 6.11158 30.8698 7.80765 31.7018 9.74365C32.5338 11.6797 32.9498 13.7756 32.9498 16.0156C32.9498 18.2556 32.5338 20.3516 31.7018 22.3036C30.8698 24.2556 29.7338 25.9516 28.2938 27.3916C26.8538 28.8316 25.1578 29.9676 23.2218 30.7836C21.2858 31.5996 19.1898 31.9996 16.9498 31.9996ZM16.9498 30.1116C20.9338 30.1116 24.2778 28.7517 26.9978 26.0477C29.7178 23.3437 31.0618 19.9836 31.0618 15.9996C31.0618 12.0156 29.7018 8.67156 26.9978 5.95156C24.2938 3.24756 20.9338 1.8876 16.9498 1.8876C12.9658 1.8876 9.62181 3.24756 6.90181 5.95156C4.19781 8.65556 2.83779 12.0156 2.83779 15.9996C2.83779 19.9836 4.19781 23.3277 6.90181 26.0477C9.60581 28.7517 12.9658 30.1116 16.9498 30.1116ZM13.1578 19.5356V14.1116C13.1578 13.0396 13.5098 12.1276 14.2298 11.3596C14.9498 10.5916 15.8458 10.2076 16.9498 10.2076C18.0538 10.2076 18.9498 10.5916 19.6698 11.3596C20.3898 12.1276 20.7418 13.0556 20.7418 14.1116V19.5356H13.1578Z" fill="#4793F8"/>
</svg>
