<svg width="16" height="9" viewBox="0 0 16 9" fill="none" xmlns="http://www.w3.org/2000/svg">
<path d="M7.96023 9C7.82328 9 7.68632 8.96997 7.5798 8.92492C7.45806 8.87987 7.35154 8.80478 7.22981 8.68465L0.260328 1.80702C0.0777221 1.62682 -0.0135812 1.37154 0.001636 1.05619C0.001636 0.740842 0.108158 0.500576 0.305981 0.305359C0.534239 0.0801096 0.792931 -0.025007 1.06684 0.00502634C1.34075 0.0350596 1.58422 0.155193 1.78205 0.335393L7.97545 6.44717L14.1688 0.335393C14.3514 0.155193 14.6101 0.0500763 14.9297 0.020043C15.2493 -0.00999032 15.4927 0.0951263 15.6906 0.335393C15.9188 0.515592 16.0253 0.770875 15.9949 1.07121C15.9645 1.37154 15.8427 1.62682 15.6601 1.83706L8.73631 8.66963C8.61457 8.78977 8.50805 8.86485 8.38631 8.9099C8.26457 8.95495 8.14284 8.98498 8.00588 8.98498L7.96023 9Z" fill="#1E1E1E"/>
</svg>
