<svg width="20" height="20" viewBox="0 0 20 20" fill="none" xmlns="http://www.w3.org/2000/svg">
<path d="M10.075 11.2556C10.2351 11.2556 10.3652 11.1956 10.4852 11.0856C10.6053 10.9755 10.6553 10.8254 10.6553 10.6553V5.26264C10.6553 5.10256 10.5953 4.97248 10.4852 4.87243C10.3752 4.76238 10.2251 4.71232 10.055 4.71232C9.88494 4.71232 9.73488 4.77239 9.63483 4.88245C9.52477 4.9925 9.47474 5.13255 9.47474 5.29263V10.6853C9.47474 10.8454 9.53476 10.9755 9.64481 11.0955C9.75487 11.2156 9.90493 11.2656 10.075 11.2656V11.2556ZM9.99499 14.9675C10.2051 14.9675 10.3752 14.8975 10.5053 14.7674C10.6353 14.6373 10.7053 14.4672 10.7053 14.2571C10.7053 14.047 10.6353 13.8769 10.5053 13.7469C10.3752 13.6168 10.2051 13.5468 9.99499 13.5468C9.78489 13.5468 9.61479 13.6168 9.48473 13.7469C9.35466 13.8769 9.28465 14.047 9.28465 14.2571C9.28465 14.4672 9.35466 14.6373 9.48473 14.7674C9.61479 14.8975 9.78489 14.9675 9.99499 14.9675ZM9.99499 20C8.59429 20 7.28364 19.7499 6.06303 19.2396C4.84242 18.7294 3.7819 18.029 2.88145 17.1186C1.981 16.2181 1.27062 15.1576 0.76036 13.937C0.250104 12.7164 0 11.4057 0 10.005C0 8.60431 0.250104 7.29367 0.76036 6.08306C1.27062 4.87246 1.97099 3.81188 2.88145 2.91143C3.7919 2.01098 4.84242 1.30062 6.06303 0.780359C7.28364 0.260098 8.59429 0 9.99499 0C11.3957 0 12.7064 0.260098 13.917 0.780359C15.1276 1.30062 16.1881 2.01098 17.0885 2.91143C17.989 3.81188 18.6994 4.87246 19.2196 6.08306C19.7399 7.29367 20 8.60431 20 10.005C20 11.4057 19.7399 12.7164 19.2196 13.937C18.6994 15.1576 17.989 16.2181 17.0885 17.1186C16.1881 18.019 15.1276 18.7294 13.917 19.2396C12.7064 19.7499 11.3957 20 9.99499 20ZM9.99499 18.8194C12.4162 18.8194 14.4972 17.959 16.2181 16.2281C17.939 14.4972 18.8094 12.4262 18.8094 10.005C18.8094 7.5838 17.949 5.50272 16.2181 3.78186C14.4872 2.05099 12.4162 1.1906 9.99499 1.1906C7.57378 1.1906 5.49274 2.05099 3.77188 3.78186C2.04101 5.51273 1.18058 7.5838 1.18058 10.005C1.18058 12.4262 2.04101 14.5072 3.77188 16.2281C5.50274 17.959 7.57378 18.8194 9.99499 18.8194Z" fill="#CC0000"/>
</svg>
