<svg width="20" height="19" viewBox="0 0 20 19" fill="none" xmlns="http://www.w3.org/2000/svg">
<path d="M13.4067 10.2343L12.5563 9.3751C12.9165 8.26335 12.6863 7.34366 11.8759 6.62608C11.0655 5.9085 10.1951 5.70629 9.25463 6.03981L8.4042 5.18088C8.63432 5.04949 8.87446 4.94839 9.14459 4.88774C9.41473 4.8271 9.69485 4.78658 10.005 4.78658C11.0555 4.78658 11.956 5.16063 12.6863 5.89842C13.4267 6.64633 13.7869 7.54576 13.7869 8.60697C13.7869 8.92028 13.7469 9.2135 13.6769 9.48638C13.6068 9.75926 13.5068 10.0119 13.3967 10.2242L13.4067 10.2343ZM16.5183 13.3268L15.7679 12.589C16.5083 12.0331 17.1686 11.4168 17.7189 10.7396C18.2791 10.0625 18.6994 9.35489 18.9895 8.61709C18.1791 6.8484 16.9785 5.44365 15.3977 4.41276C13.8069 3.37176 12.0661 2.85627 10.1751 2.85627C9.5648 2.85627 8.93448 2.91683 8.29416 3.02801C7.65384 3.13918 7.12358 3.28083 6.70337 3.44254L5.85294 2.58337C6.3832 2.3408 7.04353 2.13858 7.82392 1.98698C8.60431 1.83538 9.36469 1.75454 10.1051 1.75454C12.1761 1.75454 14.0971 2.32046 15.8579 3.46253C17.6188 4.59449 18.9695 6.12064 19.91 8.04093C19.94 8.12179 19.97 8.21277 19.98 8.31384C19.99 8.4149 20 8.51604 20 8.63732C20 8.7485 20 8.85975 19.98 8.97093C19.96 9.0821 19.94 9.16295 19.91 9.2236C19.5098 10.0422 19.0195 10.7901 18.4492 11.4774C17.879 12.1647 17.2386 12.781 16.5083 13.3369L16.5183 13.3268ZM17.5588 18.2287L14.037 14.7216C13.5368 14.9541 12.9365 15.1361 12.2261 15.2776C11.5258 15.419 10.7854 15.4898 10.005 15.4898C7.88395 15.4898 5.93297 14.9238 4.16209 13.7818C2.3912 12.6498 1.03051 11.1237 0.0900414 9.20336C0.0600264 9.10229 0.030004 9.0113 0.019999 8.92034C0.00999402 8.82938 0 8.72826 0 8.61709C0 8.50591 -1.09914e-05 8.39466 0.019999 8.28349C0.040009 8.17231 0.0600264 8.09146 0.0900414 8.03082C0.460227 7.28291 0.930456 6.55533 1.49074 5.85796C2.05102 5.16059 2.68134 4.53409 3.4017 3.958L0.800388 1.36049C0.700338 1.24931 0.65034 1.11778 0.640335 0.966183C0.640335 0.814581 0.680328 0.683302 0.800388 0.572127C0.920449 0.460952 1.05054 0.400391 1.20061 0.400391C1.35069 0.400391 1.49075 0.460952 1.60081 0.572127L18.3292 17.4706C18.4292 17.5717 18.4793 17.683 18.4793 17.8245C18.4793 17.966 18.4292 18.0871 18.3292 18.2084C18.2291 18.3398 18.1091 18.4004 17.949 18.4004C17.7889 18.4004 17.6588 18.3398 17.5488 18.2287H17.5588ZM4.15207 4.73599C3.54177 5.16048 2.92147 5.74689 2.32117 6.47458C1.71086 7.21237 1.27064 7.91971 1.0005 8.60697C1.83092 10.3757 3.05154 11.7804 4.67235 12.8113C6.29316 13.8523 8.12407 14.3678 10.1651 14.3678C10.7654 14.3678 11.3557 14.3174 11.946 14.2163C12.5363 14.1152 12.9665 14.004 13.2166 13.8726L11.4957 12.1342C11.3157 12.2151 11.0855 12.2858 10.8054 12.3464C10.5253 12.4071 10.2551 12.4274 10.015 12.4274C8.9645 12.4274 8.06402 12.0634 7.33366 11.3256C6.59329 10.5878 6.23313 9.67829 6.23313 8.60697C6.23313 8.36441 6.26313 8.1016 6.31316 7.81861C6.37319 7.53562 6.44321 7.30322 6.52325 7.11119L4.1721 4.73599H4.15207Z" fill="#1E1E1E"/>
</svg>
