<svg width="12" height="22" viewBox="0 0 12 22" fill="none" xmlns="http://www.w3.org/2000/svg">
<path d="M11.6771 0.341C11.8816 0.571999 11.9892 0.836 12 1.144C12 1.452 11.9031 1.716 11.6771 1.947L2.83049 10.989L11.6771 20.031C11.8816 20.24 12 20.504 12 20.823C12 21.142 11.9031 21.406 11.6771 21.637C11.4726 21.868 11.2143 22 10.9022 22C10.5901 22 10.3318 21.901 10.1058 21.67L0.247533 11.594C0.150672 11.495 0.0860977 11.407 0.0538101 11.308C0.0215235 11.209 -9.53674e-07 11.11 -9.53674e-07 10.989C-9.53674e-07 10.868 0.0215235 10.769 0.0538101 10.67C0.0860977 10.571 0.161434 10.483 0.247533 10.384L10.1058 0.319C10.3103 0.110001 10.5686 0 10.8807 0C11.1928 0 11.4511 0.109999 11.6771 0.341Z" fill="#1E1E1E"/>
</svg>
