<svg width="135" height="31" viewBox="0 0 135 31" fill="none" xmlns="http://www.w3.org/2000/svg">
<path d="M0 5.76006C0.81 5.62006 1.6 5.56006 2.36 5.56006C3.13 5.56006 3.94 5.63006 4.78 5.76006V25.4001H13.02C13.09 25.7801 13.13 26.1301 13.16 26.4701C13.19 26.8101 13.19 27.1301 13.19 27.4401C13.19 27.7901 13.18 28.1401 13.16 28.4801C13.13 28.8201 13.09 29.1801 13.02 29.5501H0V5.76006Z" fill="white"/>
<path d="M19.6998 22.43C19.7798 23.76 20.2498 24.72 21.0898 25.31C21.9298 25.91 23.0398 26.2 24.4098 26.2C25.1498 26.2 25.9298 26.13 26.7098 25.98C27.4998 25.83 28.2398 25.63 28.9398 25.37C29.1798 25.82 29.3898 26.34 29.5798 26.95C29.7598 27.57 29.8498 28.24 29.8798 28.94C28.1598 29.6 26.2098 29.93 24.0598 29.93C22.4798 29.93 21.1098 29.71 19.9698 29.27C18.8298 28.82 17.9098 28.21 17.1998 27.43C16.4798 26.64 15.9498 25.71 15.5998 24.63C15.2598 23.55 15.0898 22.37 15.0898 21.08C15.0898 19.82 15.2698 18.64 15.6198 17.53C15.9698 16.43 16.4998 15.47 17.1898 14.65C17.8798 13.84 18.7498 13.19 19.7798 12.71C20.8098 12.24 21.9998 11.99 23.3698 11.99C24.5598 11.99 25.6198 12.21 26.5498 12.61C27.4698 13.03 28.2698 13.6 28.9198 14.33C29.5698 15.06 30.0598 15.93 30.3998 16.93C30.7398 17.93 30.8998 19.01 30.8998 20.15C30.8998 20.57 30.8898 20.99 30.8498 21.4C30.8098 21.81 30.7798 22.13 30.7298 22.37H19.6998V22.43ZM26.4098 19.16C26.3698 18.1 26.0698 17.25 25.5298 16.59C24.9898 15.94 24.2298 15.62 23.2598 15.62C22.1498 15.62 21.3098 15.93 20.7398 16.55C20.1698 17.17 19.8198 18.04 19.7098 19.16H26.4098Z" fill="white"/>
<path d="M37.8602 22.43C37.9402 23.76 38.4102 24.72 39.2502 25.31C40.0902 25.91 41.1902 26.2 42.5702 26.2C43.3102 26.2 44.0902 26.13 44.8702 25.98C45.6602 25.83 46.4002 25.63 47.1002 25.37C47.3402 25.82 47.5502 26.34 47.7202 26.95C47.9002 27.57 47.9902 28.24 48.0202 28.94C46.3002 29.6 44.3502 29.93 42.1902 29.93C40.6102 29.93 39.2402 29.71 38.1002 29.27C36.9602 28.83 36.0402 28.21 35.3302 27.43C34.6102 26.64 34.0802 25.71 33.7502 24.63C33.4202 23.55 33.2402 22.37 33.2402 21.08C33.2402 19.82 33.4202 18.64 33.7702 17.53C34.1202 16.43 34.6502 15.47 35.3402 14.65C36.0302 13.84 36.9002 13.19 37.9302 12.71C38.9602 12.23 40.1502 11.99 41.5202 11.99C42.7102 11.99 43.7702 12.21 44.7002 12.61C45.6302 13.03 46.4202 13.6 47.0702 14.33C47.7202 15.06 48.2202 15.93 48.5502 16.93C48.8702 17.93 49.0502 19.01 49.0502 20.15C49.0502 20.57 49.0402 20.99 49.0002 21.4C48.9702 21.81 48.9302 22.13 48.8802 22.37H37.8602V22.43ZM44.5802 19.16C44.5402 18.1 44.2402 17.25 43.7002 16.59C43.1602 15.94 42.4002 15.62 41.4402 15.62C40.3302 15.62 39.4902 15.93 38.9202 16.55C38.3502 17.17 38.0002 18.04 37.8902 19.16H44.5802Z" fill="white"/>
<path d="M55.4706 22.1101C54.2406 21.76 53.2606 21.2301 52.5706 20.5401C51.8806 19.8501 51.5306 18.81 51.5306 17.41C51.5306 15.73 52.1306 14.4201 53.3306 13.4701C54.5306 12.5201 56.1706 12.05 58.2406 12.05C59.1106 12.05 59.9506 12.13 60.7806 12.28C61.6206 12.43 62.4706 12.6701 63.3406 12.9701C63.3006 13.5401 63.1806 14.15 63.0006 14.76C62.8206 15.38 62.6206 15.9201 62.3806 16.3801C61.8506 16.1601 61.2706 15.96 60.6206 15.8C59.9806 15.64 59.3106 15.5601 58.6006 15.5601C57.8606 15.5601 57.2606 15.68 56.8506 15.91C56.4306 16.14 56.2106 16.5201 56.2106 17.0201C56.2106 17.51 56.3606 17.85 56.6606 18.05C56.9606 18.25 57.3806 18.44 57.9306 18.62L59.8106 19.19C60.4306 19.37 60.9906 19.58 61.4906 19.84C61.9906 20.1 62.4106 20.4101 62.7606 20.7901C63.1106 21.1701 63.3806 21.63 63.5906 22.18C63.7906 22.7301 63.8906 23.4001 63.8906 24.2001C63.8906 25.0101 63.7106 25.7801 63.3806 26.4901C63.0506 27.2001 62.5406 27.8201 61.8906 28.3301C61.2406 28.8601 60.4606 29.2601 59.5206 29.5601C58.5906 29.8601 57.5406 30.0101 56.3706 30.0101C55.8406 30.0101 55.3506 30 54.9106 29.96C54.4606 29.93 54.0406 29.87 53.6406 29.8C53.2306 29.72 52.8306 29.6201 52.4406 29.5201C52.0506 29.41 51.6106 29.26 51.1406 29.09C51.1806 28.49 51.2906 27.9001 51.4506 27.2901C51.6106 26.6801 51.8306 26.1 52.1006 25.5201C52.8306 25.8 53.5206 26.02 54.1706 26.17C54.8206 26.32 55.5006 26.39 56.2006 26.39C56.5106 26.39 56.8506 26.3601 57.2206 26.3101C57.5906 26.2601 57.9206 26.16 58.2406 26.01C58.5506 25.86 58.8106 25.67 59.0106 25.44C59.2306 25.21 59.3206 24.91 59.3206 24.53C59.3206 24 59.1606 23.62 58.8306 23.39C58.5006 23.16 58.0606 22.96 57.4906 22.78L55.4706 22.1101Z" fill="white"/>
<path d="M66.9802 12.44C67.2902 12.37 67.6002 12.3201 67.9102 12.2901C68.2202 12.2601 68.5602 12.2401 68.9402 12.2401C69.3202 12.2401 69.6402 12.2501 69.9302 12.2901C70.2102 12.3201 70.5102 12.37 70.8202 12.44C70.8902 12.55 70.9402 12.71 71.0002 12.91C71.0502 13.13 71.1102 13.34 71.1502 13.57C71.1902 13.8 71.2301 14.03 71.2701 14.25C71.3001 14.47 71.3402 14.66 71.3502 14.82C71.5302 14.48 71.7602 14.1601 72.0402 13.8301C72.3202 13.4901 72.6602 13.21 73.0702 12.94C73.4602 12.68 73.9102 12.4701 74.4102 12.2901C74.9102 12.1301 75.4702 12.05 76.0702 12.05C78.7402 12.05 80.4601 13.07 81.2001 15.1C81.6501 14.29 82.2702 13.57 83.0702 12.96C83.8702 12.35 84.9002 12.05 86.1302 12.05C88.0802 12.05 89.5002 12.59 90.4202 13.66C91.3402 14.73 91.8002 16.41 91.8002 18.68V29.5801C91.0002 29.7201 90.2202 29.78 89.4402 29.78C88.6602 29.78 87.8802 29.7101 87.0802 29.5801V19.92C87.0802 18.73 86.9302 17.81 86.6302 17.17C86.3302 16.53 85.7202 16.21 84.8302 16.21C84.4502 16.21 84.0902 16.26 83.7202 16.37C83.3502 16.48 83.0302 16.68 82.7202 16.98C82.4202 17.28 82.1802 17.7001 81.9902 18.2401C81.8002 18.7801 81.7102 19.49 81.7102 20.34V29.59C80.9102 29.73 80.1302 29.7901 79.3502 29.7901C78.5802 29.7901 77.7902 29.72 76.9902 29.59V19.93C76.9902 18.74 76.8402 17.82 76.5402 17.18C76.2402 16.5401 75.6502 16.2201 74.7402 16.2201C74.3602 16.2201 73.9802 16.2701 73.6202 16.3801C73.2402 16.4901 72.9002 16.7 72.6002 17.03C72.3002 17.35 72.0702 17.8 71.9002 18.37C71.7202 18.94 71.6301 19.7 71.6301 20.62V29.59C70.8301 29.73 70.0501 29.7901 69.2701 29.7901C68.4901 29.7901 67.7102 29.72 66.9102 29.59V12.44H66.9802Z" fill="white"/>
<path d="M104.26 18.3C104.26 17.77 104.18 17.34 103.99 17.01C103.81 16.69 103.57 16.4101 103.26 16.2401C102.95 16.0501 102.57 15.9301 102.11 15.8601C101.66 15.7901 101.16 15.7701 100.61 15.7701C99.4197 15.7701 98.1497 16 96.8097 16.46C96.4997 15.89 96.2697 15.35 96.1197 14.84C95.9697 14.34 95.8897 13.73 95.8897 13.01C96.8597 12.69 97.8397 12.44 98.7997 12.28C99.7697 12.13 100.68 12.05 101.52 12.05C103.82 12.05 105.61 12.6001 106.91 13.7001C108.2 14.8101 108.85 16.57 108.85 19.01V28.9501C108.08 29.1901 107.14 29.42 106.03 29.64C104.92 29.86 103.67 29.98 102.29 29.98C101.17 29.98 100.12 29.89 99.1897 29.68C98.2597 29.48 97.4397 29.15 96.7797 28.69C96.0997 28.23 95.5897 27.6301 95.2197 26.9001C94.8497 26.1701 94.6797 25.2801 94.6797 24.2201C94.6797 23.1601 94.9097 22.27 95.3597 21.55C95.8197 20.83 96.3997 20.2601 97.1197 19.8301C97.8397 19.4001 98.6397 19.1 99.5197 18.91C100.4 18.72 101.29 18.6301 102.17 18.6301C102.81 18.6301 103.51 18.6601 104.3 18.7201V18.3H104.26ZM104.26 21.7201C103.99 21.6801 103.71 21.64 103.39 21.6C103.08 21.57 102.81 21.55 102.56 21.55C101.48 21.55 100.62 21.7401 99.9897 22.1301C99.3697 22.5201 99.0397 23.15 99.0397 24C99.0397 24.57 99.1597 25.0201 99.4097 25.3301C99.6597 25.6401 99.9397 25.87 100.29 26.01C100.63 26.16 100.99 26.24 101.39 26.28C101.78 26.31 102.12 26.3301 102.41 26.3301C102.73 26.3301 103.07 26.3 103.4 26.25C103.73 26.2 104.02 26.14 104.27 26.1V21.7201H104.26Z" fill="white"/>
<path d="M112.62 12.44C112.93 12.37 113.24 12.3201 113.54 12.2901C113.85 12.2601 114.19 12.2401 114.57 12.2401C114.95 12.2401 115.27 12.2501 115.56 12.2901C115.84 12.3201 116.14 12.37 116.45 12.44C116.52 12.55 116.59 12.71 116.64 12.91C116.69 13.13 116.75 13.34 116.79 13.57C116.83 13.8 116.87 14.03 116.91 14.25C116.94 14.47 116.96 14.66 116.99 14.82C117.21 14.48 117.48 14.1601 117.79 13.8301C118.1 13.4901 118.45 13.21 118.86 12.94C119.27 12.68 119.73 12.4701 120.24 12.2901C120.75 12.1301 121.31 12.05 121.93 12.05C123.87 12.05 125.34 12.5801 126.32 13.6301C127.3 14.6801 127.8 16.35 127.8 18.62V29.5401C127.01 29.68 126.22 29.7401 125.44 29.7401C124.66 29.7401 123.88 29.67 123.08 29.5401V19.8801C123.08 18.6901 122.9 17.7701 122.54 17.1301C122.17 16.4901 121.54 16.17 120.63 16.17C120.25 16.17 119.87 16.2201 119.47 16.3301C119.08 16.4401 118.71 16.65 118.39 16.98C118.07 17.3 117.81 17.75 117.62 18.32C117.42 18.89 117.32 19.65 117.32 20.57V29.5401C116.52 29.68 115.74 29.7401 114.96 29.7401C114.18 29.7401 113.4 29.67 112.6 29.5401V12.44H112.62Z" fill="white"/>
<path d="M130.95 6.72C130.45 6.72 130 6.64 129.58 6.46C129.16 6.28 128.82 6.05 128.52 5.76C128.22 5.47 128.01 5.11 127.84 4.7C127.68 4.29 127.6 3.85 127.6 3.36C127.6 2.89 127.68 2.44 127.84 2.03C128 1.62 128.23 1.26 128.52 0.959999C128.82 0.659999 129.17 0.429998 129.58 0.259998C129.99 0.0899983 130.45 0 130.95 0C131.45 0 131.9 0.0799983 132.32 0.259998C132.73 0.419998 133.08 0.669999 133.38 0.959999C133.68 1.26 133.89 1.61 134.06 2.03C134.22 2.44 134.3 2.88 134.3 3.37C134.3 3.86 134.22 4.29 134.06 4.71C133.9 5.12 133.67 5.47 133.38 5.77C133.1 6.07 132.74 6.3 132.32 6.47C131.91 6.64 131.45 6.72 130.95 6.72ZM130.95 6.05C131.36 6.05 131.72 5.98 132.05 5.85C132.38 5.72 132.65 5.53 132.88 5.28C133.11 5.04 133.27 4.75 133.39 4.43C133.51 4.11 133.57 3.75 133.57 3.37C133.57 2.99 133.52 2.64 133.39 2.31C133.27 1.99 133.09 1.7 132.88 1.46C132.65 1.22 132.38 1.03 132.05 0.889999C131.73 0.749999 131.36 0.689999 130.95 0.689999C130.54 0.689999 130.18 0.759999 129.85 0.889999C129.53 1.03 129.25 1.21 129.02 1.46C128.79 1.7 128.63 1.99 128.51 2.31C128.39 2.63 128.33 2.99 128.33 3.37C128.33 3.75 128.38 4.1 128.51 4.43C128.63 4.75 128.81 5.04 129.02 5.28C129.25 5.52 129.52 5.71 129.85 5.85C130.18 5.99 130.54 6.05 130.95 6.05ZM129.75 1.57C129.91 1.54 130.07 1.52 130.24 1.5C130.4 1.49 130.56 1.47 130.77 1.47C131.34 1.47 131.74 1.56 132 1.77C132.24 1.97 132.37 2.23 132.37 2.57C132.37 2.77 132.33 2.96 132.25 3.11C132.17 3.27 132.07 3.39 131.98 3.48L131.84 3.59L132.64 5C132.56 5.01 132.46 5.03 132.37 5.03C132.28 5.03 132.18 5.04 132.07 5.04C131.99 5.04 131.91 5.04 131.83 5.03C131.75 5.03 131.68 5.02 131.61 5L130.8 3.42L130.95 3.33C131.09 3.25 131.21 3.15 131.29 3.06C131.38 2.97 131.43 2.84 131.43 2.69C131.43 2.55 131.39 2.43 131.31 2.35C131.23 2.26 131.09 2.21 130.92 2.21C130.88 2.21 130.84 2.21 130.81 2.21C130.78 2.21 130.73 2.22 130.67 2.24V5.01C130.55 5.04 130.41 5.05 130.25 5.05C130.18 5.05 130.1 5.05 130.02 5.04C129.94 5.04 129.86 5.03 129.79 5.01V1.57H129.75Z" fill="white"/>
</svg>
