<svg width="107" height="90" viewBox="0 0 107 90" fill="none" xmlns="http://www.w3.org/2000/svg">
<path d="M6.05002 4.59524H0.193911C0.0775644 3.93319 0 3.2322 0 2.5312C0 1.86915 0.0775644 1.16815 0.193911 0.506104H16.7539C16.8703 1.16815 16.9478 1.83021 16.9478 2.5312C16.9478 3.27114 16.8703 3.93319 16.7539 4.59524H10.8978V24.1842C10.51 24.2231 10.1222 24.2621 9.73433 24.301C9.34651 24.3399 8.95869 24.3399 8.57087 24.3399C8.18305 24.3399 7.79522 24.3399 7.36862 24.301C6.94201 24.2621 6.51541 24.2231 6.08881 24.1842V4.59524H6.05002Z" fill="white"/>
<path d="M19.5078 0.155777C19.8956 0.077889 20.2447 0.0389436 20.6713 0.0389436C21.0591 -5.94821e-07 21.4469 0 21.8347 0C22.2226 0 22.5716 -5.94821e-07 22.9982 0.0389436C23.386 0.0778878 23.7739 0.116833 24.1617 0.155777V9.19083C24.3168 8.9961 24.5107 8.76244 24.7822 8.48983C25.0149 8.21722 25.3639 7.94461 25.713 7.71095C26.1008 7.47728 26.5274 7.24362 27.0703 7.08784C27.6133 6.89312 28.195 6.81523 28.8931 6.81523C30.7547 6.81523 32.1896 7.36045 33.1591 8.41194C34.1287 9.46344 34.6329 11.138 34.6329 13.3968V24.3012C34.2451 24.3791 33.8572 24.418 33.4694 24.418C33.0816 24.4569 32.6938 24.4569 32.3059 24.4569C31.9181 24.4569 31.5691 24.4569 31.1425 24.418C30.7547 24.3791 30.3668 24.3401 29.979 24.3012V14.6041C29.979 13.4357 29.7851 12.5011 29.4361 11.878C29.0482 11.2549 28.4277 10.9044 27.5357 10.9044C27.1479 10.9044 26.7989 10.9433 26.3723 11.0601C25.9844 11.177 25.6354 11.3717 25.3251 11.6833C25.0149 11.9948 24.7434 12.4621 24.5495 13.0074C24.3556 13.5915 24.2392 14.3315 24.2392 15.2661V24.2233C23.8514 24.3012 23.4636 24.3401 23.0758 24.3401C22.688 24.3791 22.3001 24.3791 21.9123 24.3791C21.5245 24.3791 21.1754 24.3791 20.7876 24.3401C20.3998 24.3012 20.012 24.2622 19.6242 24.2233V0.155777H19.5078Z" fill="white"/>
<path d="M42.0395 17.1355C42.117 18.4596 42.5824 19.3943 43.4356 20.0174C44.2501 20.6016 45.3747 20.9131 46.7321 20.9131C47.469 20.9131 48.2446 20.8352 49.0203 20.6794C49.7959 20.5237 50.5328 20.3289 51.2309 20.0563C51.4635 20.4847 51.6962 21.0299 51.8514 21.653C52.0453 22.2761 52.1228 22.9382 52.1616 23.6392C50.4552 24.3012 48.5161 24.6128 46.3831 24.6128C44.793 24.6128 43.4744 24.3791 42.3497 23.9508C41.225 23.5224 40.2943 22.8993 39.5962 22.1204C38.8981 21.3415 38.3552 20.4068 38.0061 19.3553C37.6571 18.2649 37.502 17.0966 37.502 15.8114C37.502 14.5652 37.6959 13.3969 38.0449 12.2675C38.3939 11.1771 38.8981 10.2035 39.5962 9.38563C40.2943 8.5678 41.1475 7.94469 42.1558 7.47736C43.1642 7.01003 44.3664 6.77637 45.7238 6.77637C46.8872 6.77637 47.9732 6.97109 48.8651 7.39947C49.7959 7.82786 50.5716 8.37308 51.1921 9.11302C51.8514 9.85296 52.3168 10.7097 52.6658 11.6833C52.976 12.6959 53.17 13.7474 53.17 14.8768C53.17 15.3051 53.17 15.6946 53.1312 16.123C53.0924 16.5124 53.0536 16.8629 53.0148 17.0966H42.0395V17.1355ZM48.71 13.8642C48.6712 12.8127 48.361 11.9559 47.8568 11.2939C47.3139 10.6318 46.577 10.3203 45.6074 10.3203C44.5215 10.3203 43.6683 10.6318 43.1254 11.2549C42.5436 11.8781 42.2334 12.7348 42.117 13.8642H48.71Z" fill="white"/>
<path d="M6.05078 33.2973C6.86521 33.1804 7.64085 33.1025 8.45528 33.1025C9.23092 33.1025 10.0453 33.1804 10.8986 33.2973V42.6049H18.8101V33.2973C19.6246 33.1804 20.4002 33.1025 21.2146 33.1025C21.9903 33.1025 22.8047 33.1804 23.6579 33.2973V56.9753C22.8435 57.0922 22.0291 57.17 21.2534 57.17C20.439 57.17 19.6246 57.0922 18.8101 56.9753V46.733H10.8986V56.9753C10.0841 57.0922 9.2697 57.17 8.49406 57.17C7.67963 57.17 6.86521 57.0922 6.05078 56.9753V33.2973Z" fill="white"/>
<path d="M25.9473 39.9955C26.4514 39.8787 26.878 39.8397 27.2659 39.8008C27.6537 39.8008 28.0027 39.8008 28.313 39.8008C28.7396 39.8008 29.205 39.8008 29.6704 39.8397C30.1357 39.8787 30.5623 39.9176 30.9114 39.9955L34.4406 54.8722L38.4351 39.9955C39.172 39.8787 39.9089 39.8008 40.6845 39.8008C40.9948 39.8008 41.3438 39.8008 41.7316 39.8008C42.1194 39.8008 42.546 39.8787 43.1278 39.9955L36.8063 61.0643C36.5348 61.8821 36.2245 62.5831 35.8755 63.1283C35.5265 63.6736 35.0999 64.1019 34.6345 64.4135C34.1691 64.7251 33.6649 64.9198 33.0832 65.0366C32.5015 65.1534 31.9197 65.2313 31.2604 65.2313C30.6399 65.2313 30.097 65.1924 29.5928 65.1145C29.0886 65.0366 28.6232 64.9198 28.1191 64.8029C28.0803 64.6861 28.0803 64.6082 28.0803 64.5303C28.0803 64.4524 28.0803 64.3746 28.0803 64.2967C28.0803 63.7515 28.1579 63.2841 28.2742 62.8168C28.3905 62.3495 28.5457 61.8821 28.7008 61.4537C28.8947 61.5316 29.1662 61.5706 29.4764 61.6485C29.7867 61.6874 30.1357 61.7264 30.446 61.7264C30.7175 61.7264 30.989 61.7264 31.2216 61.6874C31.4931 61.6485 31.7258 61.5706 31.9973 61.3759C32.23 61.2201 32.5015 60.9475 32.6954 60.597C32.9281 60.2465 33.122 59.7402 33.2771 59.1171L33.8201 57.092C33.5874 57.1309 33.3159 57.1309 33.0056 57.1309C32.6954 57.1309 32.4239 57.1309 32.1136 57.1309C31.8809 57.1309 31.6482 57.1309 31.4156 57.1309C31.1829 57.1309 30.989 57.092 30.8338 57.0531L25.9473 39.9955Z" fill="white"/>
<path d="M45.2595 32.9464C46.0351 32.8296 46.8108 32.7517 47.5476 32.7517C48.3233 32.7517 49.0989 32.8296 49.8746 32.9464V41.631C50.1848 41.0468 50.7666 40.5405 51.5034 40.1511C52.2791 39.7617 53.1323 39.5669 54.1406 39.5669C55.1102 39.5669 56.0409 39.7617 56.8941 40.1122C57.7474 40.4627 58.4454 41.0079 59.0659 41.7089C59.6865 42.4099 60.1519 43.3056 60.5009 44.396C60.8499 45.4865 61.0438 46.7327 61.0438 48.2126C61.0438 49.6535 60.8112 50.9386 60.3845 52.068C59.9579 53.1974 59.2986 54.171 58.4842 54.9499C57.6698 55.7288 56.6227 56.3519 55.4204 56.7803C54.2182 57.2087 52.8608 57.4423 51.3483 57.4423C50.8829 57.4423 50.34 57.4034 49.8358 57.3644C49.2928 57.3255 48.7499 57.2476 48.2069 57.1697C47.664 57.0918 47.121 56.975 46.6169 56.8582C46.1127 56.7413 45.6473 56.5855 45.2207 56.4298V32.9464H45.2595ZM49.8746 53.3532C50.146 53.4311 50.4175 53.509 50.7278 53.509C51.038 53.5479 51.3095 53.5479 51.6198 53.5479C53.0547 53.5479 54.1406 53.1195 54.955 52.3017C55.7695 51.4839 56.1573 50.1598 56.1573 48.3683C56.1573 46.7716 55.9246 45.6033 55.4204 44.7465C54.9163 43.9287 54.063 43.5003 52.8608 43.5003C51.9688 43.5003 51.2707 43.7729 50.7278 44.3571C50.1848 44.9412 49.8746 45.837 49.8746 47.1221V53.3532Z" fill="white"/>
<path d="M64.1465 39.9955C64.4567 39.9176 64.767 39.8787 65.0773 39.8397C65.3875 39.8008 65.6978 39.8008 66.0468 39.8008C66.3571 39.8008 66.7061 39.8397 67.0164 39.8787C67.3266 39.9176 67.6369 39.9955 67.9471 40.0344C68.0247 40.1513 68.0635 40.3071 68.1411 40.5018C68.1798 40.6965 68.2574 40.9302 68.2962 41.1638C68.335 41.3975 68.3737 41.6312 68.4125 41.8648C68.4513 42.0985 68.4901 42.2932 68.4901 42.449C68.9555 41.7869 69.576 41.1638 70.2741 40.6186C70.9722 40.0734 71.8641 39.8008 72.9113 39.8008C73.144 39.8008 73.3766 39.8008 73.6481 39.8397C73.9196 39.8787 74.1523 39.8787 74.2686 39.9566C74.3074 40.1902 74.3462 40.4239 74.385 40.6965C74.4238 40.9691 74.4238 41.2807 74.4238 41.5922C74.4238 41.9817 74.4238 42.3711 74.385 42.7995C74.3462 43.2279 74.3074 43.6563 74.1911 44.0457C73.9584 44.0068 73.6869 43.9678 73.3767 43.9678C73.0664 43.9678 72.9113 43.9678 72.8337 43.9678C72.4459 43.9678 72.0581 44.0068 71.5927 44.0846C71.1273 44.1625 70.7007 44.3573 70.2741 44.7078C69.8475 45.0193 69.4984 45.5256 69.227 46.1876C68.9555 46.8497 68.8003 47.7843 68.8003 48.9527V57.0531C68.4125 57.1309 68.0247 57.1699 67.6369 57.1699C67.2491 57.2088 66.8612 57.2088 66.4734 57.2088C66.0856 57.2088 65.7366 57.2088 65.3487 57.1699C64.9609 57.1309 64.5731 57.092 64.1465 57.0531V39.9955Z" fill="white"/>
<path d="M78.4182 43.5785H76.2076C76.13 43.3058 76.0912 42.9943 76.0525 42.6827C76.0137 42.3712 76.0137 42.0596 76.0137 41.787C76.0137 41.2029 76.0912 40.6187 76.2076 40.0345H82.9557V57.0531C82.18 57.17 81.4044 57.2479 80.6675 57.2479C79.9307 57.2479 79.1938 57.17 78.4182 57.0531V43.5785ZM77.7589 37.1527C77.6425 36.4127 77.565 35.6728 77.565 34.9328C77.565 34.2319 77.6425 33.4919 77.7589 32.713C78.1467 32.6351 78.5345 32.5962 78.9611 32.5573C79.3877 32.5183 79.7755 32.5183 80.1246 32.5183C80.5124 32.5183 80.9002 32.5183 81.3268 32.5573C81.7534 32.5962 82.18 32.6351 82.5291 32.713C82.6066 33.1025 82.6454 33.453 82.6454 33.8035C82.6842 34.154 82.6842 34.5434 82.6842 34.8939C82.6842 35.2444 82.6842 35.5949 82.6454 35.9843C82.6066 36.3738 82.5679 36.7243 82.5291 37.1137C82.1413 37.1916 81.7534 37.2306 81.3268 37.2306C80.9002 37.2695 80.5124 37.2695 80.1246 37.2695C79.7755 37.2695 79.3877 37.2695 78.9611 37.2306C78.5345 37.2695 78.1079 37.1916 77.7589 37.1527Z" fill="white"/>
<path d="M96.9159 32.9468C97.3038 32.8689 97.6916 32.83 98.0794 32.83C98.4672 32.791 98.855 32.791 99.2041 32.791C99.5919 32.791 99.9409 32.791 100.368 32.83C100.755 32.8689 101.143 32.9078 101.531 32.9468V56.4691C100.484 56.7806 99.4756 57.0143 98.3897 57.1701C97.3425 57.3259 96.0627 57.4037 94.5502 57.4037C93.3867 57.4037 92.2621 57.248 91.2149 56.9364C90.1678 56.6249 89.2371 56.1186 88.4226 55.4176C87.6082 54.7166 86.9877 53.8209 86.5223 52.7304C86.0569 51.64 85.8242 50.277 85.8242 48.7192C85.8242 47.473 86.0181 46.3046 86.4447 45.1753C86.8326 44.0848 87.4143 43.1112 88.1899 42.2934C88.9268 41.4756 89.8576 40.8525 90.9435 40.3851C92.0294 39.9178 93.1928 39.6841 94.5114 39.6841C94.8993 39.6841 95.3259 39.6841 95.7525 39.7231C96.1791 39.762 96.6057 39.8399 96.9935 39.9178V32.9468H96.9159ZM96.9159 43.5396C96.4893 43.4228 96.1403 43.3449 95.8688 43.3059C95.5973 43.267 95.2483 43.267 94.8217 43.267C94.0848 43.267 93.4643 43.4228 92.9214 43.6954C92.3784 44.0069 91.9518 44.3964 91.6028 44.8637C91.2537 45.37 90.9823 45.9541 90.8271 46.6162C90.672 47.2782 90.5944 47.9792 90.5944 48.7192C90.5944 49.6149 90.7108 50.3938 90.9047 51.0169C91.1374 51.64 91.4089 52.1463 91.7967 52.4968C92.1845 52.8862 92.6499 53.1588 93.1541 53.3146C93.697 53.4704 94.24 53.5483 94.8605 53.5483C95.2483 53.5483 95.5585 53.5483 95.8688 53.5093C96.1791 53.4704 96.5281 53.3925 96.8771 53.3146V43.5396H96.9159Z" fill="white"/>
<path d="M6.05078 65.8936H19.4306C19.547 66.5556 19.6246 67.2177 19.6246 67.9187C19.6246 68.6586 19.547 69.3206 19.4306 69.9827H10.8598V75.5517H17.6854C17.8018 76.2527 17.8794 76.9537 17.8794 77.5768C17.8794 78.2778 17.8018 78.9788 17.6854 79.6409H10.8598V89.5716C10.0453 89.6884 9.23092 89.7663 8.49406 89.7663C7.67963 89.7663 6.86521 89.6884 6.05078 89.5716V65.8936Z" fill="white"/>
<path d="M21.0603 72.5531C21.8359 72.4363 22.6116 72.3584 23.3872 72.3584C24.1628 72.3584 24.9385 72.4363 25.7141 72.5531V81.5882C25.7141 82.4839 25.7917 83.2238 25.9468 83.808C26.102 84.3921 26.2959 84.8595 26.6061 85.21C26.9164 85.5605 27.2654 85.7941 27.692 85.9499C28.1186 86.1057 28.6616 86.1836 29.2433 86.1836C30.0577 86.1836 30.717 86.1057 31.26 85.9499V72.5921C32.0356 72.4752 32.8113 72.3973 33.5481 72.3973C34.3238 72.3973 35.0994 72.4752 35.8751 72.5921V88.9486C35.177 89.1823 34.2462 89.416 33.1215 89.6496C31.9968 89.8833 30.7946 90.0001 29.5148 90.0001C28.3901 90.0001 27.343 89.9222 26.2959 89.7275C25.2487 89.5328 24.3568 89.1823 23.5811 88.5981C22.8055 88.014 22.1849 87.1961 21.7196 86.1057C21.2542 85.0153 21.0215 83.5354 21.0215 81.705V72.5531H21.0603Z" fill="white"/>
<path d="M40.2569 76.0971H38.1239L37.9688 75.4351L44.0963 67.5684H44.8332V72.5532H48.789C48.8665 72.8648 48.9053 73.1763 48.9053 73.4489C48.9441 73.7215 48.9441 73.9941 48.9441 74.2668C48.9441 74.5783 48.9441 74.8899 48.9053 75.1625C48.8665 75.4351 48.8278 75.7856 48.789 76.1361H44.8332V82.8345C44.8332 83.4965 44.872 84.0807 44.9883 84.4701C45.1047 84.8985 45.2598 85.2101 45.4537 85.4437C45.6476 85.6774 45.9191 85.8332 46.2294 85.95C46.5396 86.0279 46.8887 86.0668 47.3153 86.0668C47.6255 86.0668 47.9746 86.0279 48.2848 85.989C48.5951 85.95 48.8666 85.8721 49.138 85.8332C49.2932 86.2616 49.4095 86.69 49.4483 87.1183C49.5258 87.5857 49.5646 87.9751 49.5646 88.3256C49.5646 88.5593 49.5646 88.754 49.5646 88.9487C49.5646 89.1045 49.5258 89.2603 49.5258 89.416C48.5175 89.6497 47.4704 89.7665 46.4233 89.7665C44.4454 89.7665 42.8941 89.2992 41.847 88.3645C40.7999 87.4299 40.2569 85.9111 40.2569 83.8081V76.0971Z" fill="white"/>
<path d="M51.4646 72.5531C52.2402 72.4363 53.0159 72.3584 53.7915 72.3584C54.5671 72.3584 55.3428 72.4363 56.1184 72.5531V81.5882C56.1184 82.4839 56.196 83.2238 56.3511 83.808C56.5062 84.3921 56.7002 84.8595 57.0104 85.21C57.3207 85.5605 57.6697 85.7941 58.0963 85.9499C58.5229 86.1057 59.0659 86.1836 59.6476 86.1836C60.462 86.1836 61.1213 86.1057 61.6643 85.9499V72.5921C62.4399 72.4752 63.2156 72.3973 63.9524 72.3973C64.7281 72.3973 65.5037 72.4752 66.2794 72.5921V88.9486C65.5813 89.1823 64.6505 89.416 63.5258 89.6496C62.3624 89.8833 61.1989 90.0001 59.9191 90.0001C58.7944 90.0001 57.7473 89.9222 56.7002 89.7275C55.653 89.5328 54.7611 89.1823 53.9854 88.5981C53.2098 88.014 52.5892 87.1961 52.1239 86.1057C51.6585 85.0153 51.4258 83.5354 51.4258 81.705V72.5531H51.4646Z" fill="white"/>
<path d="M70.041 72.5531C70.3513 72.4752 70.6615 72.4363 70.9718 72.3973C71.282 72.3584 71.5923 72.3584 71.9413 72.3584C72.2516 72.3584 72.6006 72.3973 72.9109 72.4363C73.2212 72.4752 73.5314 72.5531 73.8417 72.5921C73.9192 72.7089 73.958 72.8647 74.0356 73.0594C74.0744 73.2541 74.1519 73.4878 74.1907 73.7214C74.2295 73.9551 74.2683 74.1888 74.3071 74.4224C74.3458 74.6561 74.3846 74.8508 74.3846 75.0066C74.85 74.3446 75.4705 73.7214 76.1686 73.1762C76.8667 72.631 77.7587 72.3584 78.8058 72.3584C79.0385 72.3584 79.2712 72.3584 79.5427 72.3973C79.8141 72.4363 80.0468 72.4363 80.1632 72.5142C80.202 72.7478 80.2407 72.9815 80.2795 73.2541C80.3183 73.5267 80.3183 73.8383 80.3183 74.1498C80.3183 74.5393 80.3183 74.9287 80.2795 75.3571C80.2407 75.7855 80.202 76.2139 80.0856 76.6033C79.8529 76.5644 79.5814 76.5254 79.2712 76.5254C78.9609 76.5254 78.8058 76.5254 78.7282 76.5254C78.3404 76.5254 77.9526 76.5644 77.4872 76.6423C77.0218 76.7201 76.5952 76.9149 76.1686 77.2654C75.742 77.5769 75.393 78.0832 75.1215 78.7452C74.85 79.4073 74.6949 80.342 74.6949 81.5103V89.6107C74.3071 89.6886 73.9192 89.7275 73.5314 89.7275C73.1436 89.7664 72.7558 89.7664 72.3679 89.7664C71.9801 89.7664 71.6311 89.7664 71.2433 89.7275C70.8554 89.6886 70.4676 89.6496 70.041 89.6107V72.5531Z" fill="white"/>
<path d="M86.3305 82.4839C86.4081 83.808 86.8734 84.7427 87.7266 85.3658C88.5411 85.9499 89.6658 86.2615 91.0231 86.2615C91.76 86.2615 92.5356 86.1836 93.3113 86.0278C94.0869 85.872 94.8238 85.6773 95.5219 85.4047C95.7546 85.8331 95.9873 86.3783 96.1424 87.0014C96.3363 87.6245 96.4139 88.2866 96.4526 88.9876C94.7462 89.6496 92.8071 89.9612 90.6741 89.9612C89.084 89.9612 87.7654 89.7275 86.6407 89.2991C85.5161 88.8707 84.5853 88.2477 83.8872 87.4688C83.1891 86.6899 82.6462 85.7552 82.2971 84.7037C81.9481 83.6133 81.793 82.445 81.793 81.1598C81.793 79.9136 81.9869 78.7453 82.3359 77.6159C82.685 76.5255 83.1891 75.5518 83.8872 74.734C84.5853 73.9162 85.4385 73.2931 86.4468 72.8258C87.4552 72.3584 88.6574 72.1248 90.0148 72.1248C91.1783 72.1248 92.2642 72.3195 93.1562 72.7479C94.0869 73.1763 94.8626 73.7215 95.4831 74.4614C96.1424 75.2013 96.6078 76.0581 96.9568 77.0317C97.2671 78.0443 97.461 79.0958 97.461 80.2251C97.461 80.6535 97.461 81.043 97.4222 81.4714C97.3834 81.8608 97.3446 82.2113 97.3059 82.445H86.3305V82.4839ZM93.001 79.2126C92.9622 78.1611 92.652 77.3043 92.1478 76.6423C91.6049 75.9802 90.868 75.6687 89.8984 75.6687C88.8125 75.6687 87.9593 75.9802 87.4164 76.6033C86.8347 77.2264 86.5244 78.0832 86.408 79.2126H93.001Z" fill="white"/>
<path d="M101.531 86.0279H100.677C100.677 85.95 100.639 85.8332 100.639 85.7163C100.639 85.5995 100.639 85.5216 100.677 85.4048H103.121C103.16 85.4827 103.16 85.5995 103.16 85.7163C103.16 85.8332 103.16 85.9111 103.121 86.0279H102.268V88.9098C102.229 88.9098 102.151 88.9098 102.112 88.9098C102.035 88.9098 101.996 88.9098 101.957 88.9098C101.918 88.9098 101.841 88.9098 101.763 88.9098C101.686 88.9098 101.647 88.9098 101.569 88.9098V86.0279H101.531Z" fill="white"/>
<path d="M103.742 85.4437C103.858 85.4437 104.013 85.4048 104.129 85.4048C104.246 85.4048 104.362 85.4048 104.517 85.4437L105.332 87.4299L106.146 85.4437C106.262 85.4437 106.34 85.4048 106.495 85.4048C106.612 85.4048 106.728 85.4048 106.844 85.4437L106.999 88.9487C106.883 88.9487 106.767 88.9876 106.65 88.9876C106.534 88.9876 106.418 88.9876 106.34 88.9487L106.262 86.5731L105.564 88.2088C105.526 88.2088 105.487 88.2088 105.409 88.2088C105.37 88.2088 105.332 88.2088 105.254 88.2088C105.215 88.2088 105.177 88.2088 105.138 88.2088C105.099 88.2088 105.06 88.2088 105.021 88.1698L104.362 86.4952L104.285 88.9098C104.168 88.9098 104.091 88.9487 103.974 88.9487C103.858 88.9487 103.78 88.9487 103.664 88.9098L103.742 85.4437Z" fill="white"/>
</svg>
