<svg width="107" height="90" viewBox="0 0 107 90" fill="none" xmlns="http://www.w3.org/2000/svg">
<path d="M6.05002 4.595H0.193911C0.0775644 3.93295 0 3.23195 0 2.53096C0 1.86891 0.0775644 1.16791 0.193911 0.505859H16.7539C16.8703 1.16791 16.9478 1.82996 16.9478 2.53096C16.9478 3.2709 16.8703 3.93295 16.7539 4.595H10.8978V24.1839C10.51 24.2229 10.1222 24.2618 9.73433 24.3008C9.34651 24.3397 8.95869 24.3397 8.57087 24.3397C8.18305 24.3397 7.79522 24.3397 7.36862 24.3008C6.94201 24.2618 6.51541 24.2229 6.08881 24.1839V4.595H6.05002Z" fill="#1E1E1E"/>
<path d="M19.5073 0.155777C19.8951 0.077889 20.2442 0.0389436 20.6708 0.0389436C21.0586 -5.94821e-07 21.4464 0 21.8343 0C22.2221 0 22.5711 -5.94821e-07 22.9977 0.0389436C23.3855 0.0778878 23.7734 0.116833 24.1612 0.155777V9.19083C24.3163 8.9961 24.5102 8.76244 24.7817 8.48983C25.0144 8.21722 25.3634 7.94461 25.7125 7.71095C26.1003 7.47728 26.5269 7.24362 27.0699 7.08784C27.6128 6.89312 28.1945 6.81523 28.8926 6.81523C30.7542 6.81523 32.1891 7.36045 33.1587 8.41194C34.1282 9.46344 34.6324 11.138 34.6324 13.3968V24.3012C34.2446 24.3791 33.8567 24.418 33.4689 24.418C33.0811 24.4569 32.6933 24.4569 32.3055 24.4569C31.9176 24.4569 31.5686 24.4569 31.142 24.418C30.7542 24.3791 30.3663 24.3401 29.9785 24.3012V14.6041C29.9785 13.4357 29.7846 12.5011 29.4356 11.878C29.0477 11.2549 28.4272 10.9044 27.5352 10.9044C27.1474 10.9044 26.7984 10.9433 26.3718 11.0601C25.984 11.177 25.6349 11.3717 25.3247 11.6833C25.0144 11.9948 24.7429 12.4621 24.549 13.0074C24.3551 13.5915 24.2388 14.3315 24.2388 15.2661V24.2233C23.8509 24.3012 23.4631 24.3401 23.0753 24.3401C22.6875 24.3791 22.2996 24.3791 21.9118 24.3791C21.524 24.3791 21.175 24.3791 20.7871 24.3401C20.3993 24.3012 20.0115 24.2622 19.6237 24.2233V0.155777H19.5073Z" fill="#1E1E1E"/>
<path d="M6.05078 33.2973C6.86521 33.1804 7.64085 33.1025 8.45528 33.1025C9.23092 33.1025 10.0453 33.1804 10.8986 33.2973V42.6049H18.8101V33.2973C19.6246 33.1804 20.4002 33.1025 21.2146 33.1025C21.9903 33.1025 22.8047 33.1804 23.6579 33.2973V56.9753C22.8435 57.0922 22.0291 57.17 21.2534 57.17C20.439 57.17 19.6246 57.0922 18.8101 56.9753V46.733H10.8986V56.9753C10.0841 57.0922 9.2697 57.17 8.49406 57.17C7.67963 57.17 6.86521 57.0922 6.05078 56.9753V33.2973Z" fill="#1E1E1E"/>
<path d="M25.9463 39.9955C26.4505 39.8787 26.8771 39.8397 27.2649 39.8008C27.6527 39.8008 28.0017 39.8008 28.312 39.8008C28.7386 39.8008 29.204 39.8008 29.6694 39.8397C30.1348 39.8787 30.5614 39.9176 30.9104 39.9955L34.4396 54.8722L38.4342 39.9955C39.171 39.8787 39.9079 39.8008 40.6835 39.8008C40.9938 39.8008 41.3428 39.8008 41.7306 39.8008C42.1185 39.8008 42.5451 39.8787 43.1268 39.9955L36.8053 61.0643C36.5338 61.8821 36.2236 62.5831 35.8745 63.1283C35.5255 63.6736 35.0989 64.1019 34.6335 64.4135C34.1681 64.7251 33.6639 64.9198 33.0822 65.0366C32.5005 65.1534 31.9187 65.2313 31.2594 65.2313C30.6389 65.2313 30.096 65.1924 29.5918 65.1145C29.0876 65.0366 28.6223 64.9198 28.1181 64.8029C28.0793 64.6861 28.0793 64.6082 28.0793 64.5303C28.0793 64.4524 28.0793 64.3746 28.0793 64.2967C28.0793 63.7515 28.1569 63.2841 28.2732 62.8168C28.3896 62.3495 28.5447 61.8821 28.6998 61.4537C28.8937 61.5316 29.1652 61.5706 29.4755 61.6485C29.7857 61.6874 30.1348 61.7264 30.445 61.7264C30.7165 61.7264 30.988 61.7264 31.2207 61.6874C31.4921 61.6485 31.7248 61.5706 31.9963 61.3759C32.229 61.2201 32.5005 60.9475 32.6944 60.597C32.9271 60.2465 33.121 59.7402 33.2761 59.1171L33.8191 57.092C33.5864 57.1309 33.3149 57.1309 33.0046 57.1309C32.6944 57.1309 32.4229 57.1309 32.1127 57.1309C31.88 57.1309 31.6473 57.1309 31.4146 57.1309C31.1819 57.1309 30.988 57.092 30.8328 57.0531L25.9463 39.9955Z" fill="#1E1E1E"/>
<path d="M45.26 32.9467C46.0356 32.8298 46.8113 32.752 47.5481 32.752C48.3238 32.752 49.0994 32.8298 49.8751 32.9467V41.6312C50.1853 41.0471 50.767 40.5408 51.5039 40.1514C52.2796 39.7619 53.1328 39.5672 54.1411 39.5672C55.1107 39.5672 56.0414 39.7619 56.8946 40.1124C57.7478 40.4629 58.4459 41.0081 59.0664 41.7091C59.687 42.4101 60.1523 43.3058 60.5014 44.3963C60.8504 45.4867 61.0443 46.7329 61.0443 48.2128C61.0443 49.6537 60.8116 50.9389 60.385 52.0683C59.9584 53.1976 59.2991 54.1713 58.4847 54.9501C57.6703 55.729 56.6232 56.3521 55.4209 56.7805C54.2187 57.2089 52.8613 57.4426 51.3488 57.4426C50.8834 57.4426 50.3404 57.4036 49.8363 57.3647C49.2933 57.3257 48.7504 57.2478 48.2074 57.17C47.6645 57.0921 47.1215 56.9752 46.6174 56.8584C46.1132 56.7416 45.6478 56.5858 45.2212 56.43V32.9467H45.26ZM49.8751 53.3534C50.1465 53.4313 50.418 53.5092 50.7283 53.5092C51.0385 53.5481 51.31 53.5481 51.6203 53.5481C53.0552 53.5481 54.1411 53.1198 54.9555 52.3019C55.77 51.4841 56.1578 50.16 56.1578 48.3686C56.1578 46.7719 55.9251 45.6035 55.4209 44.7468C54.9167 43.9289 54.0635 43.5005 52.8613 43.5005C51.9693 43.5005 51.2712 43.7732 50.7283 44.3573C50.1853 44.9415 49.8751 45.8372 49.8751 47.1224V53.3534Z" fill="#1E1E1E"/>
<path d="M64.1472 39.9955C64.4575 39.9176 64.7677 39.8787 65.078 39.8397C65.3882 39.8008 65.6985 39.8008 66.0475 39.8008C66.3578 39.8008 66.7068 39.8397 67.0171 39.8787C67.3274 39.9176 67.6376 39.9955 67.9479 40.0344C68.0254 40.1513 68.0642 40.3071 68.1418 40.5018C68.1806 40.6965 68.2581 40.9302 68.2969 41.1638C68.3357 41.3975 68.3745 41.6312 68.4133 41.8648C68.452 42.0985 68.4908 42.2932 68.4908 42.449C68.9562 41.7869 69.5767 41.1638 70.2748 40.6186C70.9729 40.0734 71.8649 39.8008 72.912 39.8008C73.1447 39.8008 73.3774 39.8008 73.6489 39.8397C73.9203 39.8787 74.153 39.8787 74.2694 39.9566C74.3082 40.1902 74.3469 40.4239 74.3857 40.6965C74.4245 40.9691 74.4245 41.2807 74.4245 41.5922C74.4245 41.9817 74.4245 42.3711 74.3857 42.7995C74.3469 43.2279 74.3082 43.6563 74.1918 44.0457C73.9591 44.0068 73.6876 43.9678 73.3774 43.9678C73.0671 43.9678 72.912 43.9678 72.8344 43.9678C72.4466 43.9678 72.0588 44.0068 71.5934 44.0846C71.128 44.1625 70.7014 44.3573 70.2748 44.7078C69.8482 45.0193 69.4992 45.5256 69.2277 46.1876C68.9562 46.8497 68.8011 47.7843 68.8011 48.9527V57.0531C68.4133 57.1309 68.0254 57.1699 67.6376 57.1699C67.2498 57.2088 66.862 57.2088 66.4741 57.2088C66.0863 57.2088 65.7373 57.2088 65.3495 57.1699C64.9616 57.1309 64.5738 57.092 64.1472 57.0531V39.9955Z" fill="#1E1E1E"/>
<path d="M78.4182 43.5787H76.2076C76.13 43.3061 76.0912 42.9945 76.0525 42.683C76.0137 42.3714 76.0137 42.0599 76.0137 41.7873C76.0137 41.2031 76.0912 40.6189 76.2076 40.0348H82.9557V57.0534C82.18 57.1702 81.4044 57.2481 80.6675 57.2481C79.9307 57.2481 79.1938 57.1702 78.4182 57.0534V43.5787ZM77.7589 37.1529C77.6425 36.413 77.565 35.673 77.565 34.9331C77.565 34.2321 77.6425 33.4922 77.7589 32.7133C78.1467 32.6354 78.5345 32.5964 78.9611 32.5575C79.3877 32.5186 79.7755 32.5186 80.1246 32.5186C80.5124 32.5186 80.9002 32.5186 81.3268 32.5575C81.7534 32.5964 82.18 32.6354 82.5291 32.7133C82.6066 33.1027 82.6454 33.4532 82.6454 33.8037C82.6842 34.1542 82.6842 34.5437 82.6842 34.8941C82.6842 35.2446 82.6842 35.5951 82.6454 35.9846C82.6066 36.374 82.5679 36.7245 82.5291 37.114C82.1413 37.1919 81.7534 37.2308 81.3268 37.2308C80.9002 37.2697 80.5124 37.2697 80.1246 37.2697C79.7755 37.2697 79.3877 37.2697 78.9611 37.2308C78.5345 37.2697 78.1079 37.1919 77.7589 37.1529Z" fill="#1E1E1E"/>
<path d="M96.9169 32.9468C97.3047 32.8689 97.6926 32.83 98.0804 32.83C98.4682 32.791 98.856 32.791 99.2051 32.791C99.5929 32.791 99.9419 32.791 100.369 32.83C100.756 32.8689 101.144 32.9078 101.532 32.9468V56.4691C100.485 56.7806 99.4765 57.0143 98.3906 57.1701C97.3435 57.3259 96.0637 57.4037 94.5512 57.4037C93.3877 57.4037 92.263 57.248 91.2159 56.9364C90.1688 56.6249 89.238 56.1186 88.4236 55.4176C87.6092 54.7166 86.9887 53.8209 86.5233 52.7304C86.0579 51.64 85.8252 50.277 85.8252 48.7192C85.8252 47.473 86.0191 46.3046 86.4457 45.1753C86.8335 44.0848 87.4153 43.1112 88.1909 42.2934C88.9278 41.4756 89.8585 40.8525 90.9445 40.3851C92.0304 39.9178 93.1938 39.6841 94.5124 39.6841C94.9002 39.6841 95.3268 39.6841 95.7534 39.7231C96.18 39.762 96.6067 39.8399 96.9945 39.9178V32.9468H96.9169ZM96.9169 43.5396C96.4903 43.4228 96.1413 43.3449 95.8698 43.3059C95.5983 43.267 95.2493 43.267 94.8227 43.267C94.0858 43.267 93.4653 43.4228 92.9223 43.6954C92.3794 44.0069 91.9528 44.3964 91.6037 44.8637C91.2547 45.37 90.9832 45.9541 90.8281 46.6162C90.673 47.2782 90.5954 47.9792 90.5954 48.7192C90.5954 49.6149 90.7118 50.3938 90.9057 51.0169C91.1384 51.64 91.4098 52.1463 91.7977 52.4968C92.1855 52.8862 92.6509 53.1588 93.155 53.3146C93.698 53.4704 94.2409 53.5483 94.8615 53.5483C95.2493 53.5483 95.5595 53.5483 95.8698 53.5093C96.18 53.4704 96.5291 53.3925 96.8781 53.3146V43.5396H96.9169Z" fill="#1E1E1E"/>
<path d="M6.05078 65.8936H19.4306C19.547 66.5556 19.6246 67.2177 19.6246 67.9187C19.6246 68.6586 19.547 69.3206 19.4306 69.9827H10.8598V75.5517H17.6854C17.8018 76.2527 17.8794 76.9537 17.8794 77.5768C17.8794 78.2778 17.8018 78.9788 17.6854 79.6409H10.8598V89.5716C10.0453 89.6884 9.23092 89.7663 8.49406 89.7663C7.67963 89.7663 6.86521 89.6884 6.05078 89.5716V65.8936Z" fill="#1E1E1E"/>
<path d="M21.0593 72.5531C21.8349 72.4363 22.6106 72.3584 23.3862 72.3584C24.1619 72.3584 24.9375 72.4363 25.7132 72.5531V81.5882C25.7132 82.4839 25.7907 83.2238 25.9458 83.808C26.101 84.3921 26.2949 84.8595 26.6051 85.21C26.9154 85.5605 27.2644 85.7941 27.691 85.9499C28.1177 86.1057 28.6606 86.1836 29.2423 86.1836C30.0568 86.1836 30.7161 86.1057 31.259 85.9499V72.5921C32.0347 72.4752 32.8103 72.3973 33.5472 72.3973C34.3228 72.3973 35.0984 72.4752 35.8741 72.5921V88.9486C35.176 89.1823 34.2452 89.416 33.1206 89.6496C31.9959 89.8833 30.7936 90.0001 29.5138 90.0001C28.3891 90.0001 27.342 89.9222 26.2949 89.7275C25.2478 89.5328 24.3558 89.1823 23.5801 88.5981C22.8045 88.014 22.184 87.1961 21.7186 86.1057C21.2532 85.0153 21.0205 83.5354 21.0205 81.705V72.5531H21.0593Z" fill="#1E1E1E"/>
<path d="M40.2564 76.0971H38.1234L37.9683 75.4351L44.0959 67.5684H44.8327V72.5532H48.7885C48.8661 72.8648 48.9048 73.1763 48.9048 73.4489C48.9436 73.7215 48.9436 73.9941 48.9436 74.2668C48.9436 74.5783 48.9436 74.8899 48.9048 75.1625C48.8661 75.4351 48.8273 75.7856 48.7885 76.1361H44.8327V82.8345C44.8327 83.4965 44.8715 84.0807 44.9878 84.4701C45.1042 84.8985 45.2593 85.2101 45.4532 85.4437C45.6471 85.6774 45.9186 85.8332 46.2289 85.95C46.5391 86.0279 46.8882 86.0668 47.3148 86.0668C47.625 86.0668 47.9741 86.0279 48.2843 85.989C48.5946 85.95 48.8661 85.8721 49.1375 85.8332C49.2927 86.2616 49.409 86.69 49.4478 87.1183C49.5254 87.5857 49.5641 87.9751 49.5641 88.3256C49.5641 88.5593 49.5641 88.754 49.5641 88.9487C49.5641 89.1045 49.5254 89.2603 49.5254 89.416C48.517 89.6497 47.4699 89.7665 46.4228 89.7665C44.4449 89.7665 42.8936 89.2992 41.8465 88.3645C40.7994 87.4299 40.2564 85.9111 40.2564 83.8081V76.0971Z" fill="#1E1E1E"/>
<path d="M51.4646 72.5531C52.2402 72.4363 53.0159 72.3584 53.7915 72.3584C54.5671 72.3584 55.3428 72.4363 56.1184 72.5531V81.5882C56.1184 82.4839 56.196 83.2238 56.3511 83.808C56.5062 84.3921 56.7002 84.8595 57.0104 85.21C57.3207 85.5605 57.6697 85.7941 58.0963 85.9499C58.5229 86.1057 59.0659 86.1836 59.6476 86.1836C60.462 86.1836 61.1213 86.1057 61.6643 85.9499V72.5921C62.4399 72.4752 63.2156 72.3973 63.9524 72.3973C64.7281 72.3973 65.5037 72.4752 66.2794 72.5921V88.9486C65.5813 89.1823 64.6505 89.416 63.5258 89.6496C62.3624 89.8833 61.1989 90.0001 59.9191 90.0001C58.7944 90.0001 57.7473 89.9222 56.7002 89.7275C55.653 89.5328 54.7611 89.1823 53.9854 88.5981C53.2098 88.014 52.5892 87.1961 52.1239 86.1057C51.6585 85.0153 51.4258 83.5354 51.4258 81.705V72.5531H51.4646Z" fill="#1E1E1E"/>
<path d="M70.0415 72.5531C70.3518 72.4752 70.662 72.4363 70.9723 72.3973C71.2825 72.3584 71.5928 72.3584 71.9418 72.3584C72.2521 72.3584 72.6011 72.3973 72.9114 72.4363C73.2216 72.4752 73.5319 72.5531 73.8422 72.5921C73.9197 72.7089 73.9585 72.8647 74.0361 73.0594C74.0749 73.2541 74.1524 73.4878 74.1912 73.7214C74.23 73.9551 74.2688 74.1888 74.3075 74.4224C74.3463 74.6561 74.3851 74.8508 74.3851 75.0066C74.8505 74.3446 75.471 73.7214 76.1691 73.1762C76.8672 72.631 77.7592 72.3584 78.8063 72.3584C79.039 72.3584 79.2717 72.3584 79.5431 72.3973C79.8146 72.4363 80.0473 72.4363 80.1637 72.5142C80.2024 72.7478 80.2412 72.9815 80.28 73.2541C80.3188 73.5267 80.3188 73.8383 80.3188 74.1498C80.3188 74.5393 80.3188 74.9287 80.28 75.3571C80.2412 75.7855 80.2024 76.2139 80.0861 76.6033C79.8534 76.5644 79.5819 76.5254 79.2717 76.5254C78.9614 76.5254 78.8063 76.5254 78.7287 76.5254C78.3409 76.5254 77.9531 76.5644 77.4877 76.6423C77.0223 76.7201 76.5957 76.9149 76.1691 77.2654C75.7425 77.5769 75.3935 78.0832 75.122 78.7452C74.8505 79.4073 74.6954 80.342 74.6954 81.5103V89.6107C74.3075 89.6886 73.9197 89.7275 73.5319 89.7275C73.1441 89.7664 72.7563 89.7664 72.3684 89.7664C71.9806 89.7664 71.6316 89.7664 71.2438 89.7275C70.8559 89.6886 70.4681 89.6496 70.0415 89.6107V72.5531Z" fill="#1E1E1E"/>
<path d="M86.3307 82.4842C86.4083 83.8083 86.8737 84.7429 87.7269 85.366C88.5413 85.9502 89.666 86.2617 91.0234 86.2617C91.7602 86.2617 92.5359 86.1838 93.3115 86.0281C94.0872 85.8723 94.824 85.6776 95.5221 85.405C95.7548 85.8334 95.9875 86.3786 96.1426 87.0017C96.3365 87.6248 96.4141 88.2868 96.4529 88.9878C94.7465 89.6499 92.8074 89.9614 90.6743 89.9614C89.0843 89.9614 87.7657 89.7278 86.641 89.2994C85.5163 88.871 84.5855 88.2479 83.8874 87.469C83.1894 86.6901 82.6464 85.7555 82.2974 84.704C81.9483 83.6135 81.7932 82.4452 81.7932 81.16C81.7932 79.9138 81.9871 78.7455 82.3362 77.6161C82.6852 76.5257 83.1894 75.5521 83.8874 74.7343C84.5855 73.9164 85.4387 73.2933 86.4471 72.826C87.4554 72.3587 88.6577 72.125 90.015 72.125C91.1785 72.125 92.2644 72.3197 93.1564 72.7481C94.0872 73.1765 94.8628 73.7217 95.4833 74.4617C96.1426 75.2016 96.608 76.0584 96.9571 77.032C97.2673 78.0445 97.4612 79.096 97.4612 80.2254C97.4612 80.6538 97.4612 81.0432 97.4224 81.4716C97.3837 81.861 97.3449 82.2115 97.3061 82.4452H86.3307V82.4842ZM93.0013 79.2128C92.9625 78.1613 92.6522 77.3046 92.1481 76.6425C91.6051 75.9805 90.8682 75.6689 89.8987 75.6689C88.8128 75.6689 87.9596 75.9805 87.4166 76.6036C86.8349 77.2267 86.5246 78.0835 86.4083 79.2128H93.0013Z" fill="#1E1E1E"/>
<path d="M101.531 86.0274H100.678C100.678 85.9495 100.639 85.8327 100.639 85.7159C100.639 85.599 100.639 85.5211 100.678 85.4043H103.121C103.16 85.4822 103.16 85.599 103.16 85.7159C103.16 85.8327 103.16 85.9106 103.121 86.0274H102.268V88.9093C102.229 88.9093 102.152 88.9093 102.113 88.9093C102.035 88.9093 101.997 88.9093 101.958 88.9093C101.919 88.9093 101.841 88.9093 101.764 88.9093C101.686 88.9093 101.647 88.9093 101.57 88.9093V86.0274H101.531Z" fill="#1E1E1E"/>
<path d="M103.742 85.4432C103.859 85.4432 104.014 85.4043 104.13 85.4043C104.247 85.4043 104.363 85.4043 104.518 85.4432L105.332 87.4294L106.147 85.4432C106.263 85.4432 106.341 85.4043 106.496 85.4043C106.612 85.4043 106.729 85.4043 106.845 85.4432L107 88.9482C106.884 88.9482 106.767 88.9872 106.651 88.9872C106.535 88.9872 106.418 88.9872 106.341 88.9482L106.263 86.5726L105.565 88.2083C105.526 88.2083 105.488 88.2083 105.41 88.2083C105.371 88.2083 105.332 88.2083 105.255 88.2083C105.216 88.2083 105.177 88.2083 105.139 88.2083C105.1 88.2083 105.061 88.2083 105.022 88.1693L104.363 86.4947L104.285 88.9093C104.169 88.9093 104.091 88.9482 103.975 88.9482C103.859 88.9482 103.781 88.9482 103.665 88.9093L103.742 85.4432Z" fill="#1E1E1E"/>
</svg>
