<svg width="138" height="36" viewBox="0 0 138 36" fill="none" xmlns="http://www.w3.org/2000/svg">
<path d="M46.3097 6H33.6797V11.05H46.3097V6Z" fill="white"/>
<path d="M14.1007 6H9.05078V22.42H14.1007V6Z" fill="white"/>
<path d="M22.3098 6H17.2598V30H22.3098V6Z" fill="white"/>
<path d="M5.88989 6H0.839844V30H5.88989V6Z" fill="white"/>
<path d="M38.7296 14.21H33.6797V30H38.7296V14.21Z" fill="white"/>
<path d="M30.5208 6H25.4707V11.05H30.5208V6Z" fill="white"/>
<path d="M30.5208 14.21H25.4707V30H30.5208V14.21Z" fill="white"/>
<path d="M57.0499 0.939941H56.4199V35.0499H57.0499V0.939941Z" fill="white"/>
<path d="M71.5107 5.01001C72.7707 5.01001 73.3408 5.24001 73.7808 5.42001V7.61001C73.1308 7.35001 72.6207 7.19001 71.7507 7.19001C69.9807 7.19001 69.1608 7.90001 69.1608 10.66C69.1608 13.42 69.9707 14.13 71.7507 14.13C72.6207 14.13 73.1308 13.97 73.7808 13.71V15.9C73.3408 16.07 72.7807 16.31 71.5107 16.31C68.3307 16.31 66.8208 14.76 66.8008 10.66C66.8208 6.56001 68.3307 5.01001 71.5107 5.01001Z" fill="white"/>
<path d="M77.0303 13.2399C76.9703 14.1799 77.4702 14.4599 78.6002 14.4599C79.6902 14.4599 80.5003 14.2399 81.0303 13.9799V15.7999C80.1903 16.1499 79.1703 16.3099 78.3003 16.3099C75.9003 16.3099 74.7402 15.0899 74.7402 12.4799C74.7402 9.8699 75.8903 8.6499 78.1403 8.6499C81.2503 8.6499 81.4703 10.9699 81.2803 13.2499L77.0303 13.2399ZM77.0303 11.8199H79.0902C79.2202 11.0199 79.0503 10.3799 78.1603 10.3799C77.3803 10.3799 77.0303 10.9099 77.0303 11.8199Z" fill="white"/>
<path d="M83.8116 8.83988L84.1016 9.35988C84.9116 8.86988 85.8316 8.62988 86.6316 8.62988C88.6016 8.62988 89.1716 9.67988 89.1716 11.0699V16.0899H86.8516V11.4099C86.8516 10.8699 86.6616 10.5099 86.0416 10.5099C85.4716 10.5099 84.9716 10.7399 84.7516 10.8899V16.0899H82.4316V8.82988H83.8116V8.83988Z" fill="white"/>
<path d="M95.0001 16.16C94.6801 16.25 94.1302 16.3101 93.8102 16.3101C91.7802 16.3101 91.0101 15.4501 91.0101 13.7401V10.78H89.8301V9.24005L91.0101 8.92005V7.42005L93.3301 6.80005V8.85005H95.1301V10.78H93.3301V13.55C93.3301 14.12 93.5502 14.44 94.2902 14.44C94.5902 14.44 94.8901 14.38 95.0001 14.35V16.16Z" fill="white"/>
<path d="M98.0809 13.2399C98.0209 14.1799 98.521 14.4599 99.651 14.4599C100.741 14.4599 101.551 14.2399 102.081 13.9799V15.7999C101.241 16.1499 100.221 16.3099 99.351 16.3099C96.951 16.3099 95.791 15.0899 95.791 12.4799C95.791 9.8699 96.9409 8.6499 99.1909 8.6499C102.301 8.6499 102.521 10.9699 102.331 13.2499L98.0809 13.2399ZM98.0809 11.8199H100.141C100.271 11.0199 100.101 10.3799 99.2109 10.3799C98.4309 10.3799 98.0809 10.9099 98.0809 11.8199Z" fill="white"/>
<path d="M108.041 10.6199C107.921 10.5899 107.631 10.5599 107.331 10.5599C106.621 10.5599 105.981 10.8099 105.791 10.9799V16.1099H103.471V8.84989H104.861L105.151 9.36989C105.511 9.01989 106.301 8.63989 107.391 8.63989C107.681 8.63989 107.941 8.69989 108.041 8.73989V10.6199Z" fill="white"/>
<path d="M116.83 7.2C116.61 7.1 116.28 6.94 115.7 6.94C115.19 6.94 114.74 7.16 114.74 7.84V8.84H116.61V10.77H114.74V16.1H112.42V10.77H111.24V9.23L112.42 8.91V7.56C112.42 5.85 113.36 5 115.47 5C115.79 5 116.44 5.07 116.84 5.25L116.83 7.2Z" fill="white"/>
<path d="M116.83 12.4699C116.83 10.1999 117.56 8.63989 120.24 8.63989C122.93 8.63989 123.65 10.2099 123.65 12.4699C123.65 14.7399 122.92 16.2999 120.24 16.2999C117.56 16.3099 116.83 14.7399 116.83 12.4699ZM119.16 12.4699C119.16 13.9199 119.45 14.4399 120.25 14.4399C121.05 14.4399 121.34 13.9199 121.34 12.4699C121.34 11.0199 121.05 10.4999 120.25 10.4999C119.45 10.4999 119.16 11.0199 119.16 12.4699Z" fill="white"/>
<path d="M129.252 10.6199C129.132 10.5899 128.842 10.5599 128.542 10.5599C127.832 10.5599 127.192 10.8099 127.002 10.9799V16.1099H124.682V8.84989H126.072L126.362 9.36989C126.722 9.01989 127.512 8.63989 128.602 8.63989C128.892 8.63989 129.152 8.69989 129.252 8.73989V10.6199Z" fill="white"/>
<path d="M69.2008 30.63H66.8809V19.74H70.5808C73.5108 19.74 74.4708 21.08 74.4708 23.15C74.4708 24.5 74.0908 25.53 72.9508 26.08L74.8809 30.63H72.1609L70.6908 26.55H69.1908L69.2008 30.63ZM69.2008 24.44H70.7809C71.8109 24.44 71.9408 23.74 71.9408 23.15C71.9408 22.54 71.8109 21.86 70.7809 21.86H69.2008V24.44Z" fill="white"/>
<path d="M77.6611 27.7699C77.6011 28.7099 78.1011 28.9899 79.2311 28.9899C80.3211 28.9899 81.1311 28.7699 81.6611 28.5099V30.3299C80.8211 30.6799 79.8012 30.8399 78.9312 30.8399C76.5312 30.8399 75.3711 29.6199 75.3711 27.0099C75.3711 24.3999 76.5211 23.1799 78.7711 23.1799C81.8811 23.1799 82.1011 25.4999 81.9111 27.7799L77.6611 27.7699ZM77.6611 26.3499H79.7211C79.8511 25.5499 79.6811 24.9099 78.7911 24.9099C78.0011 24.9099 77.6611 25.4299 77.6611 26.3499Z" fill="white"/>
<path d="M86.7905 25.5499C86.7905 25.2199 86.5605 25.0399 85.9305 25.0399C85.0205 25.0399 83.9604 25.3199 83.3204 25.5899V23.6399C83.8104 23.4199 84.9005 23.1599 85.9305 23.1599C88.5405 23.1599 89.0405 24.2799 89.0405 25.9099V30.6299H87.6505L87.3304 30.0799C86.8104 30.5399 86.0704 30.8399 85.2004 30.8399C83.3604 30.8399 82.7305 29.6199 82.7305 28.5299C82.7305 26.5699 84.1705 26.2799 85.4805 26.1499L86.8005 26.0199L86.7905 25.5499ZM85.8204 27.4099C85.1704 27.4999 84.9005 27.8199 84.9005 28.3799C84.9005 28.9199 85.2505 29.2399 85.7405 29.2399C86.1605 29.2399 86.5505 29.1199 86.7905 28.8899V27.2799L85.8204 27.4099Z" fill="white"/>
<path d="M93.2616 30.69C93.2616 30.69 92.9616 30.75 92.5916 30.75C91.3416 30.75 90.3516 30.11 90.3516 28.7V19.74H92.6616V28.38C92.6616 28.66 92.7916 28.82 93.2516 28.82L93.2616 30.69Z" fill="white"/>
<path d="M103.711 26.04H99.5115V28.51H104.131V30.63H97.1914V19.74H104.131V21.86H99.5115V23.97H103.711V26.04Z" fill="white"/>
<path d="M110.751 25.4899C110.081 25.2099 109.251 25.0299 108.411 25.0299C107.761 25.0299 107.391 25.1799 107.391 25.5399C107.391 25.9199 107.641 25.9999 108.121 26.0499C110.411 26.2499 111.051 26.8599 111.051 28.3699C111.051 29.7599 110.221 30.8399 107.771 30.8399C106.431 30.8399 105.661 30.5899 105.131 30.3799V28.4299C105.811 28.7199 106.801 28.9799 107.721 28.9799C108.461 28.9799 108.791 28.8399 108.791 28.4699C108.791 28.0899 108.541 28.0099 108.061 27.9599C105.761 27.7599 105.131 27.1499 105.131 25.6399C105.131 24.1599 106.091 23.1699 108.331 23.1699C109.651 23.1699 110.281 23.3399 110.761 23.5499L110.751 25.4899Z" fill="white"/>
<path d="M116.73 30.6901C116.41 30.7801 115.861 30.8301 115.541 30.8301C113.511 30.8301 112.74 29.9701 112.74 28.2601V25.3001H111.561V23.7601L112.74 23.4401V21.9401L115.061 21.3201V23.3701H116.86V25.3001H115.061V28.0701C115.061 28.6401 115.281 28.9601 116.021 28.9601C116.331 28.9601 116.61 28.9001 116.73 28.8701V30.6901Z" fill="white"/>
<path d="M121.551 25.5499C121.551 25.2199 121.32 25.0399 120.69 25.0399C119.77 25.0399 118.71 25.3199 118.08 25.5899V23.6399C118.57 23.4199 119.66 23.1599 120.69 23.1599C123.3 23.1599 123.801 24.2799 123.801 25.9099V30.6299H122.411L122.09 30.0799C121.57 30.5399 120.83 30.8399 119.95 30.8399C118.11 30.8399 117.48 29.6199 117.48 28.5299C117.48 26.5699 118.92 26.2799 120.22 26.1499L121.541 26.0199L121.551 25.5499ZM120.58 27.4099C119.93 27.4999 119.671 27.8199 119.671 28.3799C119.671 28.9199 120.02 29.2399 120.51 29.2399C120.93 29.2399 121.321 29.1199 121.551 28.8899V27.2799L120.58 27.4099Z" fill="white"/>
<path d="M129.631 30.6901C129.311 30.7801 128.761 30.8301 128.441 30.8301C126.411 30.8301 125.641 29.9701 125.641 28.2601V25.3001H124.461V23.7601L125.641 23.4401V21.9401L127.961 21.3201V23.3701H129.761V25.3001H127.961V28.0701C127.961 28.6401 128.181 28.9601 128.921 28.9601C129.231 28.9601 129.511 28.9001 129.631 28.8701V30.6901Z" fill="white"/>
<path d="M132.71 27.7699C132.65 28.7099 133.15 28.9899 134.28 28.9899C135.37 28.9899 136.18 28.7699 136.71 28.5099V30.3299C135.87 30.6799 134.85 30.8399 133.98 30.8399C131.58 30.8399 130.42 29.6199 130.42 27.0099C130.42 24.3999 131.57 23.1799 133.82 23.1799C136.93 23.1799 137.15 25.4999 136.96 27.7799L132.71 27.7699ZM132.71 26.3499H134.77C134.9 25.5499 134.73 24.9099 133.84 24.9099C133.06 24.9099 132.71 25.4299 132.71 26.3499Z" fill="white"/>
</svg>
