<svg width="12" height="22" viewBox="0 0 12 22" fill="none" xmlns="http://www.w3.org/2000/svg">
<path d="M0.32287 21.659C0.118386 21.428 0.0107623 21.164 0 20.856C0 20.548 0.096861 20.284 0.32287 20.053L9.16951 11.011L0.32287 1.969C0.118386 1.76 0 1.496 0 1.177C0 0.858 0.096861 0.594 0.32287 0.363C0.527354 0.132 0.78565 0 1.09776 0C1.40987 0 1.66816 0.099 1.89417 0.33L11.7525 10.406C11.8493 10.505 11.9139 10.593 11.9462 10.692C11.9785 10.791 12 10.89 12 11.011C12 11.132 11.9785 11.231 11.9462 11.33C11.9139 11.429 11.8386 11.517 11.7525 11.616L1.89417 21.681C1.68969 21.89 1.43139 22 1.11928 22C0.807175 22 0.548879 21.89 0.32287 21.659Z" fill="#1E1E1E"/>
</svg>
