<svg width="20" height="15" viewBox="0 0 20 15" fill="none" xmlns="http://www.w3.org/2000/svg">
<path d="M10 11.4015C11.05 11.4015 11.95 11.0205 12.68 10.2484C13.41 9.47638 13.78 8.57058 13.78 7.5C13.78 6.41913 13.41 5.49273 12.66 4.74127C11.92 3.97951 11.03 3.60882 9.98999 3.60882C8.94999 3.60882 8.04 3.98982 7.31 4.76188C6.58 5.53393 6.20999 6.43972 6.20999 7.5103C6.20999 8.58088 6.57999 9.51757 7.32999 10.269C8.07999 11.0205 8.96 11.4015 10 11.4015ZM10 10.2793C9.24 10.2793 8.59999 10.0117 8.07999 9.46607C7.55999 8.92049 7.29999 8.27205 7.29999 7.5C7.29999 6.72795 7.56 6.05891 8.09 5.52362C8.62 4.98833 9.25 4.72066 10 4.72066C10.75 4.72066 11.4 4.98834 11.92 5.53393C12.44 6.07951 12.7 6.72795 12.7 7.5C12.7 8.28235 12.44 8.94109 11.91 9.47638C11.38 10.0117 10.75 10.2793 10 10.2793ZM10 14.5C7.88 14.5 5.95001 13.9133 4.20001 12.7501C2.45001 11.5868 1.09 10.0221 0.119995 8.07653C0.0699951 8.01476 0.039989 7.92213 0.019989 7.82948C-1.09859e-05 7.73683 0 7.62353 0 7.5C0 7.38677 -1.09859e-05 7.27346 0.019989 7.17052C0.039989 7.06758 0.0699951 6.98524 0.119995 6.92347C1.09 4.9779 2.45001 3.41316 4.20001 2.24994C5.95001 1.08671 7.88 0.5 10 0.5C12.12 0.5 14.05 1.08671 15.8 2.24994C17.55 3.41316 18.91 4.9779 19.88 6.92347C19.93 6.98524 19.96 7.07787 19.98 7.17052C20 7.26317 20 7.37647 20 7.5C20 7.61323 20 7.72654 19.98 7.82948C19.96 7.93242 19.93 8.01476 19.88 8.07653C18.91 10.0221 17.55 11.5868 15.8 12.7501C14.05 13.9133 12.12 14.5 10 14.5Z" fill="#121212"/>
</svg>
