<svg width="292" height="292" viewBox="0 0 292 292" fill="none" xmlns="http://www.w3.org/2000/svg">
<path d="M146 292C226.634 292 292 226.634 292 146C292 65.3664 226.634 0 146 0C65.3664 0 0 65.3664 0 146C0 226.634 65.3664 292 146 292Z" fill="#FA908C"/>
<path d="M146.462 63.2855C151.696 63.2855 157.654 65.632 158.918 70.6834C160.903 78.8002 158.557 91.2474 155.487 94.1336C153.323 96.1196 149.892 97.2011 146.28 97.2011C142.671 97.2011 139.422 96.1196 137.073 94.1336C134.006 91.2474 131.657 78.8002 133.645 70.6834C135.088 65.632 141.046 63.2855 146.462 63.2855ZM146.462 61.4829C140.143 61.4829 133.645 64.3691 132.2 70.3207C130.214 78.4397 132.2 91.7893 136.172 95.5778C138.879 97.9222 142.671 99.006 146.462 99.006C150.253 99.006 154.044 97.9222 156.751 95.5778C160.724 91.9706 162.709 78.4397 160.724 70.3207C159.279 64.3691 152.781 61.4829 146.462 61.4829Z" fill="#1E1E1E"/>
<path d="M170.833 159.261L171.012 153.488L180.943 156.375C185.817 157.998 190.69 153.307 189.066 148.437L179.137 115.963C174.082 102.614 118.839 102.253 113.603 115.963L103.674 148.437C102.05 153.488 106.923 157.998 111.799 156.375L124.952 153.089L125.42 152.972M170.651 126.247L174.985 140.679L153.862 135.627C150.252 134.725 149.349 139.776 149.349 142.302H143.391C143.212 139.776 142.49 134.725 138.878 135.627L117.757 140.679L122.088 126.247" stroke="#1E1E1E" stroke-width="2" stroke-miterlimit="10"/>
<path d="M132.56 151.322C133.823 151.322 135.448 151.501 136.893 151.862L196.83 168.279C197.009 168.821 197.191 170.626 196.469 173.151C195.746 175.856 194.843 177.301 194.482 177.661L171.013 174.775H169.027V176.759C168.667 181.989 167.763 188.124 166.86 193.536C166.5 195.52 166.32 197.504 165.957 199.13L159.82 230.88C159.459 231.241 157.835 231.78 155.126 231.78C152.419 231.78 150.795 231.241 150.252 230.88V227.994C150.252 208.509 150.252 194.618 150.252 174.593V172.97L148.628 172.789C141.948 172.068 135.087 171.347 130.032 170.084C127.686 169.542 125.88 168.64 124.798 167.739C122.812 166.114 122.089 161.786 123.534 157.997C124.256 155.29 126.602 151.322 132.56 151.322ZM132.56 149.518C120.103 149.518 118.479 164.672 123.534 168.821C124.977 169.903 126.783 170.805 129.492 171.526C134.726 172.97 141.948 173.691 148.267 174.233C148.267 195.341 148.267 209.772 148.267 230.88C148.267 232.503 151.695 233.224 154.947 233.224C158.014 233.224 161.084 232.503 161.445 231.241L167.584 199.309C168.485 192.815 170.291 183.975 170.652 176.759L194.303 179.645C194.303 179.645 194.303 179.645 194.482 179.645C197.552 179.645 200.44 167.739 197.37 166.837L137.254 150.239C135.629 149.699 134.005 149.518 132.56 149.518Z" fill="#1E1E1E"/>
<path d="M90.8578 142.482C92.6617 142.482 94.8284 143.024 95.1892 145.187L99.3434 160.702V160.883V161.063C104.036 172.61 131.117 178.563 143.031 179.284V192.634C135.087 192.273 122.45 190.108 110.536 185.417C101.147 181.629 89.4126 174.954 86.5243 164.672L82.3722 148.797C82.193 147.713 82.5538 146.631 83.2753 145.729C84.7183 143.745 87.9696 142.482 90.8578 142.482ZM90.8578 140.678C85.8028 140.678 79.6655 144.287 80.5663 149.157L84.8998 165.032C90.1363 184.696 126.241 194.078 145.016 194.439V177.48C133.824 177.301 105.481 170.805 101.329 160.342L97.1767 144.827C96.2737 141.761 93.7461 140.678 90.8578 140.678Z" fill="#1E1E1E"/>
<path d="M202.064 142.482C204.952 142.482 208.022 143.924 209.647 145.729C210.368 146.631 210.729 147.713 210.55 148.797L206.216 164.672C205.855 165.935 205.313 167.377 204.412 168.821C204.231 167.558 203.87 166.295 203.149 165.214C202.246 163.588 200.621 162.325 198.815 161.786L193.578 160.342L197.551 145.187C198.094 142.843 200.26 142.482 202.064 142.482ZM202.064 140.678C199.176 140.678 196.469 141.941 195.927 144.827L191.775 160.342C191.593 160.702 191.414 161.063 191.232 161.425L198.454 163.409C203.328 164.672 203.328 170.986 202.425 174.954C205.134 171.889 207.301 168.1 208.204 165.032L212.535 149.157C213.256 144.287 207.119 140.678 202.064 140.678Z" fill="#1E1E1E"/>
<path d="M172.639 190.469C178.957 188.485 185.097 185.96 191.416 182.713" stroke="#1E1E1E" stroke-width="2" stroke-miterlimit="10"/>
<path d="M139.6 134.906V117.046H153.682V134.906" stroke="#1E1E1E" stroke-width="2" stroke-miterlimit="10"/>
<path d="M153.683 121.917H158.014C159.278 121.917 160.181 122.637 160.181 123.721V128.952C160.181 129.854 159.278 130.757 158.014 130.757H153.683" stroke="#1E1E1E" stroke-width="2" stroke-miterlimit="10"/>
</svg>
