<svg width="292" height="292" viewBox="0 0 292 292" fill="none" xmlns="http://www.w3.org/2000/svg">
<path d="M146 292C226.634 292 292 226.634 292 146C292 65.3664 226.634 0 146 0C65.3664 0 0 65.3664 0 146C0 226.634 65.3664 292 146 292Z" fill="white"/>
<path d="M148.946 170.316V167.082C148.946 161.273 132.083 153.989 118.307 153.989C104.532 153.989 87.6699 164.518 87.6699 170.316V203.052" stroke="#1E1E1E" stroke-width="2" stroke-linejoin="round"/>
<path d="M118.973 106.331C111.077 106.331 103.655 112.404 103.655 119.962V130.562C103.655 138.049 111.077 144.193 118.973 144.193C126.87 144.193 134.293 138.12 134.293 130.562V119.962C134.363 112.475 126.93 106.331 118.973 106.331Z" stroke="#1E1E1E" stroke-width="2" stroke-linejoin="round"/>
<path d="M165.938 209.593L183.001 176.857H135.301L125.064 199.736H104.652" stroke="#1E1E1E" stroke-width="2" stroke-linejoin="round"/>
<path d="M77.4238 209.593H214.576" stroke="#1E1E1E" stroke-width="2" stroke-linejoin="round"/>
<path d="M153.634 117.205C153.302 121.122 152.364 125.506 150.024 130.094C148.683 132.586 149.419 133.471 151.9 132.189C158.788 128.609 163.881 125.17 167.693 121.935C169.7 122.21 171.777 122.403 173.844 122.403C192.844 122.403 208.304 110.318 208.304 95.4048C208.304 80.4917 192.854 68.4067 173.844 68.4067C154.835 68.4067 139.385 80.4917 139.385 95.4048C139.385 104.316 145.002 112.281 153.634 117.205Z" stroke="#1E1E1E" stroke-width="2" stroke-linejoin="round"/>
<path d="M163.467 95.4048C162.398 95.4048 161.531 96.4221 161.732 97.5004C162.67 103.574 167.824 108.233 174.046 108.233C180.268 108.233 185.351 103.574 186.359 97.5004C186.561 96.4221 185.694 95.4048 184.625 95.4048H163.487H163.467Z" stroke="#1E1E1E" stroke-width="2" stroke-linejoin="round"/>
<path d="M169.216 87.3683C167.007 83.1162 163.457 83.1162 161.319 87.3683" stroke="#1E1E1E" stroke-width="2" stroke-linejoin="round"/>
<path d="M186.683 87.3683C184.474 83.1162 180.924 83.1162 178.786 87.3683" stroke="#1E1E1E" stroke-width="2" stroke-linejoin="round"/>
</svg>
