<svg width="16" height="9" viewBox="0 0 16 9" fill="none" xmlns="http://www.w3.org/2000/svg">
<path d="M8.03977 9.53674e-07C8.17672 9.53674e-07 8.31368 0.0300331 8.4202 0.0750837C8.54194 0.120133 8.64846 0.195217 8.77019 0.315351L15.7397 7.19298C15.9223 7.37318 16.0136 7.62846 15.9984 7.94381C15.9984 8.25916 15.8918 8.49942 15.694 8.69464C15.4658 8.91989 15.2071 9.02501 14.9332 8.99497C14.6592 8.96494 14.4158 8.84481 14.218 8.66461L8.02455 2.55283L1.83116 8.66461C1.64855 8.84481 1.38986 8.94992 1.0703 8.97996C0.750736 9.00999 0.507261 8.90487 0.309438 8.66461C0.0811796 8.48441 -0.0253429 8.22912 0.00509167 7.92879C0.0355263 7.62846 0.157266 7.37318 0.339872 7.16294L7.26369 0.330367C7.38543 0.210234 7.49195 0.135151 7.61369 0.0901003C7.73543 0.0450506 7.85716 0.0150175 7.99412 0.0150175L8.03977 9.53674e-07Z" fill="#1E1E1E"/>
</svg>
